SplineFontDB: 3.0
FontName: Comme-Bold
FullName: Comme Bold
FamilyName: Comme
Weight: Bold
Copyright: Digitized data Copyright (c) 2011-2014, vernon adams.
Version: 1.2
ItalicAngle: 0
UnderlinePosition: 0
UnderlineWidth: 0
Ascent: 727
Descent: 273
UFOAscent: 761.719
UFODescent: -271.484
LayerCount: 2
Layer: 0 0 "Back"  1
Layer: 1 0 "Fore"  0
FSType: 0
OS2Version: 0
OS2_WeightWidthSlopeOnly: 0
OS2_UseTypoMetrics: 1
CreationTime: 1397173192
ModificationTime: 1397229520
PfmFamily: 17
TTFWeight: 700
TTFWidth: 5
LineGap: 0
VLineGap: 0
OS2TypoAscent: 1087
OS2TypoAOffset: 0
OS2TypoDescent: -234
OS2TypoDOffset: 0
OS2TypoLinegap: 0
OS2WinAscent: 1087
OS2WinAOffset: 0
OS2WinDescent: 234
OS2WinDOffset: 0
HheadAscent: 1087
HheadAOffset: 0
HheadDescent: -234
HheadDOffset: 0
OS2Vendor: 'NeWT'
Lookup: 4 0 1 "ligaStandardLigatureslookup0"  {"ligaStandardLigatureslookup0 subtable"  } ['liga' ('latn' <'dflt' > 'grek' <'dflt' > 'DFLT' <'dflt' > ) ]
Lookup: 4 0 0 "fracDiagonalFractionslookup11"  {"fracDiagonalFractionslookup11 subtable"  } ['frac' ('latn' <'dflt' 'CAT ' 'MOL ' 'ROM ' 'TRK ' > 'grek' <'dflt' > 'DFLT' <'dflt' > ) ]
Lookup: 6 0 0 "ordnOrdinalslookup12"  {"ordnOrdinalslookup12 contextual 0"  "ordnOrdinalslookup12 contextual 1"  } ['ordn' ('latn' <'dflt' 'CAT ' 'MOL ' 'ROM ' 'TRK ' > 'grek' <'dflt' > 'DFLT' <'dflt' > ) ]
Lookup: 1 0 0 "Single Substitution lookup 3"  {"Single Substitution lookup 3 subtable"  } []
Lookup: 1 0 0 "Single Substitution lookup 4"  {"Single Substitution lookup 4 subtable"  } []
Lookup: 4 0 0 "dligDiscretionaryLigatureslooku"  {"dligDiscretionaryLigatureslooku subtable"  } ['dlig' ('latn' <'dflt' 'CAT ' 'MOL ' 'ROM ' 'TRK ' > 'grek' <'dflt' > 'DFLT' <'dflt' > ) ]
MarkAttachClasses: 1
DEI: 91125
ChainSub2: coverage "ordnOrdinalslookup12 contextual 1"  0 0 0 1
 1 1 0
  Coverage: 3 O o
  BCoverage: 49 zero one two three four five six seven eight nine
 1
  SeqLookup: 0 "Single Substitution lookup 4" 
EndFPST

StartChar: A
Encoding: 65 65 0
Width: 643
VWidth: 0
GlyphClass: 2
Flags: HW
PickledData: "(dp1
S'org.pippin.gimp.org.kernagic'
p2
(dp3
S'lstem'
p4
I0
sS'rstem'
p5
I0
ssS'com.typemytype.robofont.layerData'
p6
(dp7
sS'org.robofab.postScriptHintData'
p8
(dp9
s."
AnchorPoint: "top" 324 626 basechar 0
AnchorPoint: "bot" 324 0 basechar 0
LayerCount: 2
Fore
SplineSet
238 626 m 261
 24 0 l 257
 164 0 l 257
 220 167 l 257
 422 167 l 257
 480 0 l 257
 620 0 l 257
 407 626 l 261
 238 626 l 261
246 254 m 257
 322 511 l 261
 398 254 l 257
 246 254 l 257
EndSplineSet
Substitution2: "Single Substitution lookup 3 subtable" ordfeminine
EndChar

StartChar: AE
Encoding: 198 198 1
Width: 820
VWidth: 0
GlyphClass: 2
Flags: HW
PickledData: "(dp1
S'org.pippin.gimp.org.kernagic'
p2
(dp3
S'lstem'
p4
I0
sS'rstem'
p5
I0
ssS'com.typemytype.robofont.layerData'
p6
(dp7
sS'org.robofab.postScriptHintData'
p8
(dp9
s."
LayerCount: 2
Fore
SplineSet
390 250 m 257
 263 250 l 257
 390 480 l 257
 390 250 l 257
360 624 m 257
 -9 0 l 257
 129 0 l 257
 223 167 l 257
 390 167 l 257
 390 0 l 257
 775 0 l 257
 780 93 l 257
 500 93 l 257
 500 273 l 257
 750 273 l 257
 750 364 l 257
 500 364 l 257
 500 533 l 257
 764 533 l 257
 770 624 l 257
 360 624 l 257
EndSplineSet
EndChar

StartChar: B
Encoding: 66 66 13
Width: 609
VWidth: 0
GlyphClass: 2
Flags: HW
PickledData: "(dp1
S'org.pippin.gimp.org.kernagic'
p2
(dp3
S'lstem'
p4
I0
sS'rstem'
p5
I0
ssS'com.typemytype.robofont.layerData'
p6
(dp7
sS'org.robofab.postScriptHintData'
p8
(dp9
s."
AnchorPoint: "top" 294 624 basechar 0
LayerCount: 2
Fore
SplineSet
255 0 m 256
 501 0 567 61 567 185 c 256
 567 271 527 317 433 336 c 257
 509 360 550 405 550 466 c 256
 550 599 445 629 267 629 c 256
 213 629 149 626 77 621 c 257
 77 7 l 257
 145 2 204 0 255 0 c 256
217 539 m 257
 236 540 258 541 276 541 c 256
 372 541 407 522 407 453 c 256
 407 391 361 372 298 372 c 258
 217 372 l 257
 217 539 l 257
217 288 m 257
 295 288 l 258
 385 288 429 270 429 193 c 256
 429 120 398 91 270 91 c 256
 252 91 235 92 217 93 c 257
 217 288 l 257
EndSplineSet
EndChar

StartChar: C
Encoding: 67 67 14
Width: 662
VWidth: 0
GlyphClass: 2
Flags: HW
PickledData: "(dp1
S'org.pippin.gimp.org.kernagic'
p2
(dp3
S'lstem'
p4
I0
sS'rstem'
p5
I0
ssS'com.typemytype.robofont.layerData'
p6
(dp7
sS'org.robofab.postScriptHintData'
p8
(dp9
s."
AnchorPoint: "top" 364 627 basechar 0
AnchorPoint: "bot" 360 -1 basechar 0
LayerCount: 2
Fore
SplineSet
618 452 m 261
 600 535 522 636 357 636 c 260
 168 636 54 516 54 313 c 256
 54 106 168 -10 358 -10 c 256
 527 -10 601 91 619 174 c 257
 517 214 l 257
 507 214 l 257
 492 151 444 88 361 88 c 256
 268 88 201 152 201 313 c 256
 201 471 263 539 368 539 c 260
 446 539 491 471 506 411 c 261
 516 411 l 261
 618 452 l 261
EndSplineSet
EndChar

StartChar: D
Encoding: 68 68 21
Width: 658
VWidth: 0
GlyphClass: 2
Flags: HW
PickledData: "(dp1
S'org.pippin.gimp.org.kernagic'
p2
(dp3
S'lstem'
p4
I0
sS'rstem'
p5
I0
ssS'com.typemytype.robofont.layerData'
p6
(dp7
sS'com.fontlab.hintData'
p8
(dp9
S'vhints'
p10
((dp11
S'position'
p12
I1280
sS'width'
p13
I122
stp14
sS'hhints'
p15
((dp16
g12
I0
sg13
I94
s(dp17
g12
I1355
sg13
I94
stp18
ssS'org.robofab.postScriptHintData'
p19
(dp20
s."
HStem: 0 40 581 40
VStem: 549 53
AnchorPoint: "top" 339 624 basechar 0
AnchorPoint: "bot" 331 0 basechar 0
LayerCount: 2
Fore
SplineSet
77 3 m 257
 127 -2 173 -4 214 -4 c 256
 513 -4 605 128 605 323 c 256
 605 532 515 629 234 629 c 256
 187 629 134 626 77 621 c 257
 77 3 l 257
217 95 m 257
 217 533 l 257
 232 534 245 535 258 535 c 256
 442 535 470 440 470 321 c 256
 470 183 420 94 251 94 c 256
 240 94 229 94 217 95 c 257
EndSplineSet
EndChar

StartChar: uni0394
Encoding: 916 916 24
Width: 571
VWidth: 0
GlyphClass: 2
Flags: HW
PickledData: "(dp1
S'org.pippin.gimp.org.kernagic'
p2
(dp3
S'lstem'
p4
I0
sS'rstem'
p5
I0
ssS'com.typemytype.robofont.layerData'
p6
(dp7
S'b'
(dp8
S'name'
p9
S'Delta'
p10
sS'lib'
p11
(dp12
sS'unicodes'
p13
(tsS'width'
p14
I1334
sS'contours'
p15
(tsS'components'
p16
(tsS'anchors'
p17
(tsssS'org.robofab.postScriptHintData'
p18
(dp19
s."
LayerCount: 2
Fore
SplineSet
133 83 m 257
 279 543 l 257
 429 83 l 257
 133 83 l 257
11 0 m 257
 550 0 l 257
 327 650 l 257
 232 650 l 257
 11 0 l 257
EndSplineSet
EndChar

StartChar: E
Encoding: 69 69 25
Width: 575
VWidth: 0
GlyphClass: 2
Flags: HW
PickledData: "(dp1
S'org.pippin.gimp.org.kernagic'
p2
(dp3
S'lstem'
p4
I0
sS'rstem'
p5
I0
ssS'com.typemytype.robofont.layerData'
p6
(dp7
sS'org.robofab.postScriptHintData'
p8
(dp9
s."
AnchorPoint: "top" 322 626 basechar 0
AnchorPoint: "bot" 291 0 basechar 0
LayerCount: 2
Fore
SplineSet
77 626 m 261
 77 0 l 257
 519 0 l 257
 522 97 l 257
 217 97 l 257
 217 273 l 257
 493 273 l 257
 493 368 l 257
 217 368 l 257
 217 532 l 257
 507 532 l 257
 514 626 l 257
 77 626 l 261
EndSplineSet
EndChar

StartChar: Eng
Encoding: 330 330 34
Width: 685
VWidth: 0
GlyphClass: 2
Flags: HW
PickledData: "(dp1
S'org.robofab.postScriptHintData'
p2
(dp3
s."
LayerCount: 2
Fore
SplineSet
480 439 m 257
 480 -5 l 258
 480 -101 465 -122 349 -122 c 257
 356 -207 l 257
 547 -202 609 -151 609 -18 c 258
 609 439 l 257
 480 439 l 257
EndSplineSet
Refer: 70 78 N 1 0 0 1 0 0 2
EndChar

StartChar: Euro
Encoding: 8364 8364 37
Width: 596
VWidth: 0
GlyphClass: 2
Flags: HW
PickledData: "(dp1
S'org.pippin.gimp.org.kernagic'
p2
(dp3
S'lstem'
p4
I0
sS'rstem'
p5
I0
ssS'com.typemytype.robofont.layerData'
p6
(dp7
S'b'
(dp8
S'name'
p9
S'Euro'
p10
sS'lib'
p11
(dp12
sS'unicodes'
p13
(tsS'width'
p14
I1391
sS'contours'
p15
(tsS'components'
p16
(tsS'anchors'
p17
(tsssS'org.robofab.postScriptHintData'
p18
(dp19
s."
LayerCount: 2
Fore
SplineSet
-33 226 m 257
 345 226 l 257
 346 286 l 257
 107 286 l 257
 107 346 l 257
 346 346 l 257
 347 407 l 257
 -32 407 l 257
 -33 346 l 257
 41 346 l 257
 41 286 l 257
 -33 286 l 257
 -33 226 l 257
EndSplineSet
Refer: 14 67 N 1 0 0 1 -21 0 2
EndChar

StartChar: F
Encoding: 70 70 38
Width: 532
VWidth: 0
GlyphClass: 2
Flags: HW
PickledData: "(dp1
S'org.pippin.gimp.org.kernagic'
p2
(dp3
S'lstem'
p4
I0
sS'rstem'
p5
I705
ssS'com.typemytype.robofont.layerData'
p6
(dp7
sS'org.robofab.postScriptHintData'
p8
(dp9
s."
AnchorPoint: "top" 313 626 basechar 0
LayerCount: 2
Fore
SplineSet
77 626 m 257
 77 0 l 257
 217 0 l 257
 217 262 l 257
 479 262 l 257
 479 356 l 257
 217 356 l 257
 217 528 l 257
 499 528 l 257
 505 626 l 257
 77 626 l 257
EndSplineSet
EndChar

StartChar: G
Encoding: 71 71 39
Width: 668
VWidth: 0
GlyphClass: 2
Flags: HW
PickledData: "(dp1
S'org.pippin.gimp.org.kernagic'
p2
(dp3
S'lstem'
p4
I0
sS'rstem'
p5
I0
ssS'com.typemytype.robofont.layerData'
p6
(dp7
sS'org.robofab.postScriptHintData'
p8
(dp9
s."
AnchorPoint: "top" 354 627 basechar 0
AnchorPoint: "bot" 331 -1 basechar 0
LayerCount: 2
Fore
SplineSet
358 -10 m 260
 457 -10 538 4 605 34 c 261
 605 346 l 257
 359 346 l 257
 356 257 l 257
 489 248 l 257
 489 104 l 261
 463 94 427 88 381 88 c 260
 272 88 201 148 201 313 c 256
 201 461 260 539 373 539 c 256
 448 539 486 494 509 452 c 257
 519 452 l 257
 608 505 l 257
 573 581 495 636 362 636 c 256
 171 636 54 514 54 313 c 256
 54 110 167 -10 358 -10 c 260
EndSplineSet
EndChar

StartChar: H
Encoding: 72 72 45
Width: 676
VWidth: 0
GlyphClass: 2
Flags: HW
PickledData: "(dp1
S'org.pippin.gimp.org.kernagic'
p2
(dp3
S'lstem'
p4
I0
sS'rstem'
p5
I0
ssS'com.typemytype.robofont.layerData'
p6
(dp7
sS'org.robofab.postScriptHintData'
p8
(dp9
s."
AnchorPoint: "top" 343 626 basechar 0
LayerCount: 2
Fore
SplineSet
459 275 m 257
 459 0 l 257
 599 0 l 257
 599 626 l 257
 459 626 l 257
 459 369 l 257
 218 369 l 257
 218 626 l 257
 78 626 l 261
 78 0 l 257
 218 0 l 257
 218 275 l 257
 459 275 l 257
EndSplineSet
EndChar

StartChar: Hbar
Encoding: 294 294 46
Width: 667
VWidth: 0
GlyphClass: 2
Flags: HW
PickledData: "(dp1
S'org.pippin.gimp.org.kernagic'
p2
(dp3
S'lstem'
p4
I0
sS'rstem'
p5
I0
ssS'com.typemytype.robofont.layerData'
p6
(dp7
sS'org.robofab.postScriptHintData'
p8
(dp9
s."
LayerCount: 2
Fore
SplineSet
27 551 m 257
 27 476 l 257
 639 476 l 257
 639 551 l 257
 27 551 l 257
EndSplineSet
Refer: 45 72 N 1 0 0 1 0 0 2
EndChar

StartChar: I
Encoding: 73 73 48
Width: 439
VWidth: 0
GlyphClass: 2
Flags: HW
PickledData: "(dp1
S'org.pippin.gimp.org.kernagic'
p2
(dp3
S'lstem'
p4
I0
sS'rstem'
p5
I0
ssS'com.typemytype.robofont.layerData'
p6
(dp7
sS'com.fontlab.hintData'
p8
(dp9
S'vhints'
p10
((dp11
S'position'
p12
I111
sS'width'
p13
I529
stp14
sS'hhints'
p15
((dp16
g12
I0
sg13
I86
s(dp17
g12
I1363
sg13
I86
stp18
ssS'org.robofab.postScriptHintData'
p19
(dp20
s."
HStem: 0 37 585 37
VStem: 47 227
AnchorPoint: "top" 220 626 basechar 0
LayerCount: 2
Fore
SplineSet
61 626 m 257
 61 550 l 257
 151 550 l 257
 151 77 l 257
 61 77 l 257
 61 0 l 257
 378 0 l 257
 378 77 l 257
 291 77 l 257
 291 550 l 257
 378 550 l 257
 378 626 l 257
 61 626 l 257
EndSplineSet
EndChar

StartChar: J
Encoding: 74 74 59
Width: 346
VWidth: 0
GlyphClass: 2
Flags: HW
PickledData: "(dp1
S'org.pippin.gimp.org.kernagic'
p2
(dp3
S'lstem'
p4
I132
sS'rstem'
p5
I0
ssS'com.typemytype.robofont.layerData'
p6
(dp7
sS'org.robofab.postScriptHintData'
p8
(dp9
s."
AnchorPoint: "top" 198 626 basechar 0
LayerCount: 2
Fore
SplineSet
126 626 m 261
 126 88 l 258
 126 -43 123 -64 76 -86 c 258
 1 -121 l 257
 49 -227 l 257
 110 -201 l 258
 261 -136 265 -86 265 61 c 258
 265 85 l 257
 265 626 l 257
 126 626 l 261
EndSplineSet
EndChar

StartChar: K
Encoding: 75 75 61
Width: 604
VWidth: 0
GlyphClass: 2
Flags: HW
PickledData: "(dp1
S'org.pippin.gimp.org.kernagic'
p2
(dp3
S'lstem'
p4
I0
sS'rstem'
p5
I851
ssS'com.typemytype.robofont.layerData'
p6
(dp7
sS'org.robofab.postScriptHintData'
p8
(dp9
s."
AnchorPoint: "top" 322 626 basechar 0
AnchorPoint: "bot" 322 0 basechar 0
LayerCount: 2
Fore
SplineSet
586 626 m 257
 434 626 l 257
 217 366 l 257
 217 626 l 257
 77 626 l 257
 77 0 l 261
 217 0 l 257
 217 233 l 257
 252 271 l 257
 452 0 l 257
 608 0 l 257
 608 4 l 257
 354 346 l 257
 586 623 l 257
 586 626 l 257
EndSplineSet
EndChar

StartChar: L
Encoding: 76 76 63
Width: 503
VWidth: 0
GlyphClass: 2
Flags: HW
PickledData: "(dp1
S'org.pippin.gimp.org.kernagic'
p2
(dp3
S'lstem'
p4
I0
sS'rstem'
p5
I597
ssS'com.typemytype.robofont.layerData'
p6
(dp7
sS'org.robofab.postScriptHintData'
p8
(dp9
s."
AnchorPoint: "top" 169 626 basechar 0
AnchorPoint: "bot" 248 0 basechar 0
LayerCount: 2
Fore
SplineSet
77 626 m 261
 77 0 l 257
 491 0 l 257
 498 90 l 257
 217 90 l 257
 217 626 l 261
 77 626 l 261
EndSplineSet
EndChar

StartChar: M
Encoding: 77 77 69
Width: 804
VWidth: 0
GlyphClass: 2
Flags: HW
PickledData: "(dp1
S'org.pippin.gimp.org.kernagic'
p2
(dp3
S'lstem'
p4
I0
sS'rstem'
p5
I0
ssS'com.fontlab.hintData'
p6
(dp7
S'vhints'
p8
((dp9
S'position'
p10
I185
sS'width'
p11
I166
s(dp12
g10
I214
sg11
I151
s(dp13
g10
I332
sg11
I33
s(dp14
g10
I1463
sg11
I149
s(dp15
g10
I1463
sg11
I39
s(dp16
g10
I1477
sg11
I164
stp17
ssS'com.typemytype.robofont.guides'
p18
((dp19
S'y'
I378
sS'x'
I548
sS'magnetic'
p20
I5
sS'angle'
p21
I0
sS'isGlobal'
p22
I00
stp23
sS'com.typemytype.robofont.layerData'
p24
(dp25
sS'org.robofab.postScriptHintData'
p26
(dp27
s."
VStem: 79 71 91 65 142 14 627 64 627 17 633 70
AnchorPoint: "top" 405 626 basechar 0
LayerCount: 2
Fore
SplineSet
69 -2 m 257
 199 -2 l 257
 199 228 l 257
 203 425 l 257
 356 93 l 257
 445 93 l 257
 601 423 l 257
 605 229 l 257
 605 -2 l 257
 736 -2 l 257
 736 248 l 257
 726 626 l 257
 584 626 l 257
 404 250 l 257
 225 626 l 257
 79 626 l 257
 69 246 l 257
 69 -2 l 257
EndSplineSet
EndChar

StartChar: N
Encoding: 78 78 70
Width: 686
VWidth: 0
GlyphClass: 2
Flags: HW
PickledData: "(dp1
S'org.pippin.gimp.org.kernagic'
p2
(dp3
S'lstem'
p4
I0
sS'rstem'
p5
I0
ssS'com.typemytype.robofont.layerData'
p6
(dp7
sS'org.robofab.postScriptHintData'
p8
(dp9
s."
AnchorPoint: "top" 330 626 basechar 0
AnchorPoint: "bot" 333 0 basechar 0
LayerCount: 2
Fore
SplineSet
480 626 m 261
 480 358 l 261
 487 190 l 257
 210 626 l 261
 77 626 l 261
 77 0 l 257
 210 0 l 257
 210 255 l 257
 202 423 l 261
 472 0 l 257
 609 0 l 257
 609 626 l 261
 480 626 l 261
EndSplineSet
EndChar

StartChar: O
Encoding: 79 79 76
Width: 706
VWidth: 0
GlyphClass: 2
Flags: HW
PickledData: "(dp1
S'org.pippin.gimp.org.kernagic'
p2
(dp3
S'lstem'
p4
I0
sS'rstem'
p5
I0
ssS'com.fontlab.hintData'
p6
(dp7
S'vhints'
p8
((dp9
S'position'
p10
I150
sS'width'
p11
I122
s(dp12
g10
I1390
sg11
I122
stp13
sS'hhints'
p14
((dp15
g10
I-19
sg11
I96
s(dp16
g10
I1372
sg11
I96
stp17
ssS'com.typemytype.robofont.guides'
p18
(tsS'com.typemytype.robofont.layerData'
p19
(dp20
sS'org.robofab.postScriptHintData'
p21
(dp22
s."
HStem: -8 41 588 41
VStem: 64 53 596 53
AnchorPoint: "top" 351 627 basechar 0
LayerCount: 2
Fore
SplineSet
505 309 m 256
 505 174 458 91 354 91 c 260
 250 91 202 173 202 309 c 256
 202 447 252 534 354 534 c 256
 458 534 505 446 505 309 c 256
54 310 m 256
 54 109 160 -10 354 -10 c 260
 549 -10 652 109 652 310 c 256
 652 512 546 636 354 636 c 256
 161 636 54 513 54 310 c 256
EndSplineSet
Substitution2: "Single Substitution lookup 4 subtable" ordmasculine
EndChar

StartChar: OE
Encoding: 338 338 77
Width: 971
VWidth: 0
GlyphClass: 2
Flags: HW
PickledData: "(dp1
S'org.pippin.gimp.org.kernagic'
p2
(dp3
S'lstem'
p4
I0
sS'rstem'
p5
I0
ssS'com.typemytype.robofont.layerData'
p6
(dp7
S'b'
(dp8
S'name'
p9
S'OE'
p10
sS'lib'
p11
(dp12
sS'unicodes'
p13
(tsS'width'
p14
I2367
sS'contours'
p15
(tsS'components'
p16
(tsS'anchors'
p17
(tsssS'org.robofab.postScriptHintData'
p18
(dp19
s."
LayerCount: 2
Fore
SplineSet
489 311 m 256
 489 177 442 90 327 90 c 256
 212 90 162 177 162 311 c 256
 162 450 214 537 327 537 c 256
 441 537 489 450 489 311 c 256
40 311 m 256
 40 109 143 -7 327 -7 c 256
 401 -7 452 9 490 41 c 257
 490 0 l 257
 910 0 l 257
 913 93 l 257
 603 93 l 257
 603 275 l 257
 885 275 l 257
 885 366 l 257
 603 366 l 257
 603 533 l 257
 898 533 l 257
 905 624 l 257
 490 624 l 257
 490 585 l 257
 451 618 402 635 327 635 c 256
 143 635 40 517 40 311 c 256
EndSplineSet
EndChar

StartChar: Oslash
Encoding: 216 216 85
Width: 707
VWidth: 0
GlyphClass: 2
Flags: HW
PickledData: "(dp1
S'org.pippin.gimp.org.kernagic'
p2
(dp3
S'lstem'
p4
I0
sS'rstem'
p5
I0
ssS'com.typemytype.robofont.layerData'
p6
(dp7
sS'org.robofab.postScriptHintData'
p8
(dp9
s."
AnchorPoint: "top" 354 624 basechar 0
LayerCount: 2
Fore
SplineSet
354 92 m 256
 337 92 323 94 309 98 c 257
 457 484 l 257
 490 447 505 385 505 309 c 256
 505 174 458 92 354 92 c 256
258 133 m 257
 219 168 202 229 202 309 c 256
 202 447 252 531 354 531 c 256
 373 531 391 527 407 522 c 257
 258 133 l 257
229 -110 m 257
 270 -1 l 257
 296 -6 324 -9 354 -9 c 256
 549 -9 652 109 652 310 c 256
 652 452 599 554 502 602 c 257
 545 715 l 257
 487 737 l 257
 444 622 l 257
 417 629 386 633 354 633 c 256
 161 633 54 513 54 310 c 256
 54 164 110 62 214 17 c 257
 175 -90 l 257
 229 -110 l 257
EndSplineSet
EndChar

StartChar: P
Encoding: 80 80 88
Width: 604
VWidth: 0
GlyphClass: 2
Flags: HW
PickledData: "(dp1
S'org.pippin.gimp.org.kernagic'
p2
(dp3
S'lstem'
p4
I0
sS'rstem'
p5
I807
ssS'com.typemytype.robofont.layerData'
p6
(dp7
sS'org.robofab.postScriptHintData'
p8
(dp9
s."
AnchorPoint: "top" 309 624 basechar 0
LayerCount: 2
Fore
SplineSet
77 621 m 257
 77 0 l 257
 217 0 l 257
 217 231 l 257
 242 229 265 228 286 228 c 256
 507 228 572 310 572 439 c 256
 572 568 498 629 255 629 c 256
 203 629 145 626 77 621 c 257
217 322 m 257
 217 536 l 257
 237 537 255 539 273 539 c 256
 417 539 440 496 440 434 c 256
 440 368 411 320 270 320 c 256
 253 320 236 321 217 322 c 257
EndSplineSet
EndChar

StartChar: Q
Encoding: 81 81 89
Width: 704
VWidth: 0
GlyphClass: 2
Flags: HW
PickledData: "(dp1
S'org.pippin.gimp.org.kernagic'
p2
(dp3
S'lstem'
p4
I0
sS'rstem'
p5
I0
ssS'com.typemytype.robofont.layerData'
p6
(dp7
sS'org.robofab.postScriptHintData'
p8
(dp9
s."
LayerCount: 2
Fore
SplineSet
330 31 m 257
 340 -1 473 -176 524 -218 c 257
 611 -147 l 257
 562 -105 481 2 453 47 c 257
 330 31 l 257
EndSplineSet
Refer: 76 79 N 1 0 0 1 0 0 2
EndChar

StartChar: R
Encoding: 82 82 90
Width: 620
VWidth: 0
GlyphClass: 2
Flags: HW
PickledData: "(dp1
S'org.pippin.gimp.org.kernagic'
p2
(dp3
S'lstem'
p4
I0
sS'rstem'
p5
I839
ssS'com.typemytype.robofont.layerData'
p6
(dp7
sS'com.fontlab.hintData'
p8
(dp9
S'vhints'
p10
((dp11
S'position'
p12
I1122
sS'width'
p13
I117
stp14
sS'hhints'
p15
((dp16
g12
I722
sg13
I96
s(dp17
g12
I1355
sg13
I94
stp18
ssS'org.robofab.postScriptHintData'
p19
(dp20
s."
HStem: 310 41 581 40
VStem: 481 50
AnchorPoint: "top" 319 624 basechar 0
AnchorPoint: "bot" 317 0 basechar 0
LayerCount: 2
Fore
SplineSet
77 0 m 257
 217 0 l 257
 217 267 l 257
 310 267 l 257
 445 0 l 257
 596 0 l 257
 596 7 l 257
 448 285 l 257
 510 303 568 346 568 449 c 256
 568 589 495 632 301 632 c 256
 240 632 165 628 77 621 c 257
 77 0 l 257
217 533 m 257
 252 536 283 537 310 537 c 256
 400 537 441 518 441 450 c 256
 441 377 409 352 309 352 c 258
 217 352 l 257
 217 533 l 257
EndSplineSet
EndChar

StartChar: S
Encoding: 83 83 94
Width: 525
VWidth: 0
GlyphClass: 2
Flags: HW
PickledData: "(dp1
S'org.pippin.gimp.org.kernagic'
p2
(dp3
S'lstem'
p4
I185
sS'rstem'
p5
I826
ssS'com.typemytype.robofont.guides'
p6
((dp7
S'y'
I973
sS'x'
I1035
sS'magnetic'
p8
I5
sS'angle'
p9
F90
sS'isGlobal'
p10
I00
s(dp11
S'y'
I382
sS'x'
I75
sg8
I5
sg9
F90
sg10
I00
stp12
sS'com.typemytype.robofont.layerData'
p13
(dp14
sS'org.robofab.postScriptHintData'
p15
(dp16
s."
AnchorPoint: "top" 265 630 basechar 0
AnchorPoint: "bot" 262 -1 basechar 0
LayerCount: 2
Fore
SplineSet
261 636 m 256
 145 636 42 586 42 455 c 256
 42 362 89 326 163 295 c 258
 256 256 l 258
 331 225 347 207 347 164 c 260
 347 110 309 90 256 90 c 260
 209 90 159 122 131 155 c 261
 119 155 l 261
 37 91 l 261
 70 43 143 -10 261 -10 c 260
 385 -10 486 48 486 174 c 260
 486 285 429 322 336 359 c 257
 258 390 l 258
 198 414 179 432 179 472 c 256
 179 524 220 542 267 542 c 256
 307 542 352 521 374 480 c 257
 383 480 l 257
 471 531 l 257
 445 582 373 636 261 636 c 256
EndSplineSet
EndChar

StartChar: T
Encoding: 84 84 100
Width: 531
VWidth: 0
GlyphClass: 2
Flags: HW
PickledData: "(dp1
S'org.pippin.gimp.org.kernagic'
p2
(dp3
S'lstem'
p4
I285
sS'rstem'
p5
I844
ssS'com.typemytype.robofont.layerData'
p6
(dp7
sS'org.robofab.postScriptHintData'
p8
(dp9
s."
AnchorPoint: "top" 269 626 basechar 0
AnchorPoint: "bot" 269 2 basechar 0
LayerCount: 2
Fore
SplineSet
13 626 m 261
 13 536 l 261
 197 536 l 261
 197 0 l 261
 335 0 l 261
 335 536 l 261
 518 536 l 261
 518 626 l 261
 13 626 l 261
EndSplineSet
EndChar

StartChar: Thorn
Encoding: 222 222 105
Width: 590
VWidth: 0
GlyphClass: 2
Flags: HW
PickledData: "(dp1
S'org.pippin.gimp.org.kernagic'
p2
(dp3
S'lstem'
p4
I0
sS'rstem'
p5
I0
ssS'com.typemytype.robofont.layerData'
p6
(dp7
S'b'
(dp8
S'name'
p9
S'Thorn'
p10
sS'lib'
p11
(dp12
sS'unicodes'
p13
(tsS'width'
p14
I1192
sS'contours'
p15
(tsS'components'
p16
(tsS'anchors'
p17
(tsssS'org.robofab.postScriptHintData'
p18
(dp19
s."
LayerCount: 2
Fore
SplineSet
76 0 m 257
 215 0 l 257
 215 154 l 257
 279 154 l 258
 478 154 547 225 547 356 c 256
 547 482 466 534 265 534 c 258
 215 534 l 257
 215 630 l 257
 76 630 l 257
 76 0 l 257
215 444 m 257
 272 444 l 257
 274 444 l 258
 386 444 413 411 413 350 c 256
 413 284 383 245 263 245 c 258
 215 245 l 257
 215 444 l 257
EndSplineSet
EndChar

StartChar: U
Encoding: 85 85 106
Width: 645
VWidth: 0
GlyphClass: 2
Flags: HW
PickledData: "(dp1
S'org.pippin.gimp.org.kernagic'
p2
(dp3
S'lstem'
p4
I0
sS'rstem'
p5
I0
ssS'com.typemytype.robofont.layerData'
p6
(dp7
sS'org.robofab.postScriptHintData'
p8
(dp9
s."
AnchorPoint: "top" 324 626 basechar 0
AnchorPoint: "bot" 322 0 basechar 0
LayerCount: 2
Fore
SplineSet
441 626 m 257
 441 237 l 258
 441 138 402 91 321 91 c 256
 241 91 204 137 204 236 c 258
 204 626 l 257
 65 626 l 257
 65 229 l 258
 65 82 149 -10 321 -10 c 256
 492 -10 580 82 580 228 c 258
 580 626 l 257
 441 626 l 257
EndSplineSet
EndChar

StartChar: V
Encoding: 86 86 117
Width: 598
VWidth: 0
GlyphClass: 2
Flags: HW
PickledData: "(dp1
S'org.pippin.gimp.org.kernagic'
p2
(dp3
S'lstem'
p4
I0
sS'rstem'
p5
I0
ssS'com.typemytype.robofont.layerData'
p6
(dp7
sS'org.robofab.postScriptHintData'
p8
(dp9
s."
LayerCount: 2
Fore
SplineSet
218 0 m 257
 369 0 l 257
 587 626 l 257
 451 626 l 257
 297 123 l 257
 148 626 l 257
 12 626 l 257
 218 0 l 257
EndSplineSet
EndChar

StartChar: W
Encoding: 87 87 118
Width: 868
VWidth: 0
GlyphClass: 2
Flags: HW
PickledData: "(dp1
S'org.pippin.gimp.org.kernagic'
p2
(dp3
S'lstem'
p4
I0
sS'rstem'
p5
I0
ssS'com.typemytype.robofont.layerData'
p6
(dp7
sS'org.robofab.postScriptHintData'
p8
(dp9
s."
AnchorPoint: "top" 437 626 basechar 0
AnchorPoint: "bot" 429 0 basechar 0
LayerCount: 2
Fore
SplineSet
434 448 m 261
 555 0 l 257
 682 0 l 257
 844 626 l 261
 710 626 l 261
 614 179 l 257
 491 621 l 261
 377 621 l 261
 254 182 l 257
 157 626 l 261
 25 626 l 261
 179 0 l 257
 306 0 l 257
 434 448 l 261
EndSplineSet
EndChar

StartChar: X
Encoding: 88 88 123
Width: 591
VWidth: 0
GlyphClass: 2
Flags: HW
PickledData: "(dp1
S'org.pippin.gimp.org.kernagic'
p2
(dp3
S'lstem'
p4
I0
sS'rstem'
p5
I0
ssS'com.typemytype.robofont.layerData'
p6
(dp7
sS'org.robofab.postScriptHintData'
p8
(dp9
s."
LayerCount: 2
Fore
SplineSet
378 317 m 261
 580 626 l 261
 431 626 l 261
 305 426 l 261
 172 626 l 261
 19 626 l 261
 219 328 l 261
 3 0 l 261
 147 0 l 261
 291 218 l 261
 436 0 l 261
 588 0 l 261
 378 317 l 261
EndSplineSet
EndChar

StartChar: Y
Encoding: 89 89 124
Width: 579
VWidth: 0
GlyphClass: 2
Flags: HW
PickledData: "(dp1
S'org.pippin.gimp.org.kernagic'
p2
(dp3
S'lstem'
p4
I0
sS'rstem'
p5
I0
ssS'com.typemytype.robofont.layerData'
p6
(dp7
sS'org.robofab.postScriptHintData'
p8
(dp9
s."
AnchorPoint: "top" 291 626 basechar 0
LayerCount: 2
Fore
SplineSet
359 238 m 257
 570 626 l 261
 425 626 l 261
 290 366 l 257
 154 626 l 261
 10 626 l 261
 220 238 l 257
 220 0 l 257
 359 0 l 257
 359 238 l 257
EndSplineSet
EndChar

StartChar: Z
Encoding: 90 90 129
Width: 532
VWidth: 0
GlyphClass: 2
Flags: HW
PickledData: "(dp1
S'org.pippin.gimp.org.kernagic'
p2
(dp3
S'lstem'
p4
I0
sS'rstem'
p5
I0
ssS'com.typemytype.robofont.layerData'
p6
(dp7
sS'org.robofab.postScriptHintData'
p8
(dp9
s."
AnchorPoint: "top" 277 626 basechar 0
AnchorPoint: "bot" 263 0 basechar 0
LayerCount: 2
Fore
SplineSet
44 0 m 257
 500 0 l 257
 497 90 l 257
 207 90 l 257
 492 545 l 257
 491 626 l 257
 51 626 l 257
 55 535 l 257
 341 535 l 257
 44 76 l 257
 44 0 l 257
EndSplineSet
EndChar

StartChar: a
Encoding: 97 97 133
Width: 492
VWidth: 0
GlyphClass: 2
Flags: HW
PickledData: "(dp1
S'org.pippin.gimp.org.kernagic'
p2
(dp3
S'lstem'
p4
I0
sS'rstem'
p5
I0
ssS'com.fontlab.hintData'
p6
(dp7
S'vhints'
p8
((dp9
S'position'
p10
I126
sS'width'
p11
I120
s(dp12
g10
I842
sg11
I32
s(dp13
g10
I875
sg11
I86
stp14
sS'hhints'
p15
((dp16
g10
I-15
sg11
I92
s(dp17
g10
I535
sg11
I82
s(dp18
g10
I983
sg11
I92
stp19
ssS'com.typemytype.robofont.guides'
p20
(tsS'com.typemytype.robofont.layerData'
p21
(dp22
sS'org.robofab.postScriptHintData'
p23
(dp24
s."
HStem: -6 40 229 35 421 40
VStem: 54 52 361 14 375 37
AnchorPoint: "top" 241 466 basechar 0
AnchorPoint: "bot" 254 0 basechar 0
LayerCount: 2
Fore
SplineSet
313 108 m 257
 295 89 266 68 219 68 c 256
 187 68 157 86 157 131 c 256
 157 184 200 201 266 201 c 258
 313 201 l 257
 313 108 l 257
184 -8 m 256
 254 -8 296 18 329 53 c 257
 342 0 l 257
 441 0 l 257
 441 281 l 258
 441 419 359 474 250 474 c 256
 187 474 117 457 56 425 c 257
 83 344 l 257
 133 368 189 382 231 382 c 256
 283 382 313 359 313 304 c 258
 313 264 l 257
 287.316071982 264.316071982 261.773761821 264.773761821 236 265 c 256
 132 265 40 229 40 129 c 256
 40 38 100 -8 184 -8 c 256
EndSplineSet
Substitution2: "Single Substitution lookup 3 subtable" ordfeminine
EndChar

StartChar: acute
Encoding: 180 180 137
Width: 331
VWidth: 0
GlyphClass: 4
Flags: HW
PickledData: "(dp1
S'org.robofab.postScriptHintData'
p2
(dp3
sS'com.typemytype.robofont.layerData'
p4
(dp5
s."
AnchorPoint: "top" 196 464 mark 0
LayerCount: 2
Fore
SplineSet
156 518 m 257
 231 518 l 257
 371 688 l 257
 234 688 l 257
 156 518 l 257
EndSplineSet
EndChar

StartChar: ae
Encoding: 230 230 139
Width: 738
VWidth: 0
GlyphClass: 2
Flags: HW
PickledData: "(dp1
S'org.pippin.gimp.org.kernagic'
p2
(dp3
S'lstem'
p4
I0
sS'rstem'
p5
I0
ssS'com.typemytype.robofont.layerData'
p6
(dp7
sS'com.fontlab.hintData'
p8
(dp9
S'vhints'
p10
((dp11
S'position'
p12
I126
sS'width'
p13
I119
s(dp14
g12
I817
sg13
I117
s(dp15
g12
I817
sg13
I82
s(dp16
g12
I1556
sg13
I98
stp17
sS'hhints'
p18
((dp19
g12
I-14
sg13
I98
s(dp20
g12
I518
sg13
I82
s(dp21
g12
I983
sg13
I92
stp22
ssS'org.robofab.postScriptHintData'
p23
(dp24
s."
HStem: -6 42 222 35 421 40
VStem: 54 51 350 50 350 35 667 42
AnchorPoint: "top" 477 464 basechar 0
LayerCount: 2
Fore
SplineSet
422 263 m 257
 427 353 478 390 532 390 c 256
 596 390 615 358 615 325 c 256
 615 291 600 262 467 262 c 256
 453 262 439 263 422 263 c 257
320 130 m 257
 312 98 274 67 211 67 c 256
 180 67 147 85 147 131 c 256
 147 184 185 205 251 205 c 256
 257 205 296 206 308 204 c 257
 308 195 315 141 320 130 c 257
706 315 m 256
 706 388 656 472 530 472 c 256
 457 472 409 445 378 396 c 257
 361 446 310 472 238 472 c 256
 170 472 105 453 42 419 c 257
 72 341 l 257
 125 366 179 380 220 380 c 256
 272 380 307 359 307 302 c 258
 307 267 l 257
 294 269 233 270 226 270 c 256
 121 270 28 231 28 129 c 256
 28 37 87 -6 174 -7 c 256
 253 -7 320 16 357 68 c 257
 389 23 436 -9 528 -9 c 256
 603 -9 667 14 704 46 c 257
 680 119 l 257
 643 97 600 77 543 77 c 256
 486 77 431 95 421 190 c 257
 434 190 448 189 460 189 c 256
 605 189 706 211 706 315 c 256
EndSplineSet
EndChar

StartChar: ampersand
Encoding: 38 38 144
Width: 608
VWidth: 0
GlyphClass: 2
Flags: HW
PickledData: "(dp1
S'org.pippin.gimp.org.kernagic'
p2
(dp3
S'lstem'
p4
I0
sS'rstem'
p5
I0
ssS'com.typemytype.robofont.layerData'
p6
(dp7
sS'com.fontlab.hintData'
p8
(dp9
S'vhints'
p10
((dp11
S'position'
p12
I135
sS'width'
p13
I121
s(dp14
g12
I312
sg13
I105
s(dp15
g12
I917
sg13
I110
stp16
sS'hhints'
p17
((dp18
g12
I-19
sg13
I96
s(dp19
g12
I1372
sg13
I96
stp20
ssS'org.robofab.postScriptHintData'
p21
(dp22
s."
HStem: -8 41 588 41
VStem: 58 52 133 45 393 47
LayerCount: 2
Fore
SplineSet
271 577 m 256
 311 577 339 558 339 516 c 256
 339 471 295 426 251 404 c 257
 212 449 201 475 201 515 c 256
 201 558 232 577 271 577 c 256
40 187 m 256
 40 57 128 -7 255 -7 c 256
 331 -7 391 21 439 62 c 257
 511 -14 l 257
 579 44 l 257
 500 128 l 257
 540 179 571 236 599 285 c 257
 531 332 l 257
 502 277 473 229 443 190 c 257
 295 349 l 257
 367 387 436 448 436 519 c 256
 436 614 351 652 272 652 c 256
 184 652 101 603 101 505 c 256
 101 448 142 393 172 362 c 257
 111 325 40 274 40 187 c 256
383 125 m 257
 345 93 304 75 259 75 c 256
 192 75 144 110 144 178 c 256
 144 237 198 283 223 297 c 257
 383 125 l 257
EndSplineSet
EndChar

StartChar: uni02BC
Encoding: 700 700 146
Width: 277
VWidth: 0
GlyphClass: 2
Flags: HW
PickledData: "(dp1
S'org.robofab.postScriptHintData'
p2
(dp3
sS'com.typemytype.robofont.layerData'
p4
(dp5
s."
LayerCount: 2
Fore
SplineSet
29 476 m 257
 121 476 l 257
 121 476 152 605 164 673 c 257
 53 673 l 257
 49 639 29 476 29 476 c 257
EndSplineSet
EndChar

StartChar: approxequal
Encoding: 8776 8776 147
Width: 537
VWidth: 0
GlyphClass: 2
Flags: HW
PickledData: "(dp1
S'org.pippin.gimp.org.kernagic'
p2
(dp3
S'lstem'
p4
I0
sS'rstem'
p5
I0
ssS'com.typemytype.robofont.layerData'
p6
(dp7
S'b'
(dp8
S'name'
p9
S'approxequal'
p10
sS'lib'
p11
(dp12
sS'unicodes'
p13
(tsS'width'
p14
I1136
sS'contours'
p15
(tsS'components'
p16
(tsS'anchors'
p17
(tsssS'org.robofab.postScriptHintData'
p18
(dp19
s."
LayerCount: 2
Fore
SplineSet
92 148 m 257
 104 191 127 219 164 219 c 256
 189 219 213 205 236 194 c 256
 291 164 327 149 368 149 c 256
 444 149 473 195 491 263 c 257
 441 294 l 257
 423 245 394 227 366 227 c 256
 341 227 312 240 278 258 c 256
 231 283 205 296 165 296 c 256
 95 296 54 250 39 182 c 257
 92 148 l 257
92 320 m 257
 104 362 127 390 163 390 c 256
 188 390 212 376 236 365 c 256
 291 335 327 320 368 320 c 256
 444 320 473 366 491 434 c 257
 441 465 l 257
 423 416 394 399 366 399 c 256
 341 399 312 411 278 429 c 256
 231 454 205 467 165 467 c 256
 95 467 54 421 39 353 c 257
 92 320 l 257
EndSplineSet
EndChar

StartChar: asciicircum
Encoding: 94 94 150
Width: 617
VWidth: 0
GlyphClass: 2
Flags: HW
PickledData: "(dp1
S'org.pippin.gimp.org.kernagic'
p2
(dp3
S'lstem'
p4
I0
sS'rstem'
p5
I0
ssS'com.typemytype.robofont.layerData'
p6
(dp7
sS'org.robofab.postScriptHintData'
p8
(dp9
s."
LayerCount: 2
Fore
SplineSet
275 624 m 257
 44 120 l 257
 174 120 l 257
 306 426 l 257
 443 120 l 257
 572 120 l 257
 332 624 l 257
 275 624 l 257
EndSplineSet
EndChar

StartChar: asciitilde
Encoding: 126 126 151
Width: 510
VWidth: 0
GlyphClass: 2
Flags: HW
PickledData: "(dp1
S'org.pippin.gimp.org.kernagic'
p2
(dp3
S'lstem'
p4
I0
sS'rstem'
p5
I0
ssS'com.typemytype.robofont.layerData'
p6
(dp7
S'b'
(dp8
S'name'
p9
S'asciitilde'
p10
sS'lib'
p11
(dp12
sS'unicodes'
p13
(tsS'width'
p14
I1192
sS'contours'
p15
(tsS'components'
p16
(tsS'anchors'
p17
(tsssS'org.robofab.postScriptHintData'
p18
(dp19
s."
LayerCount: 2
Fore
SplineSet
73 204 m 257
 91 236 118 266 155 266 c 256
 185 266 211 255 244 239 c 256
 282 221 313 209 351 209 c 256
 411 209 460 247 482 293 c 257
 449 351 l 257
 418 312 388 292 356 292 c 256
 333 292 303 303 266 321 c 256
 229 338 195 349 159 349 c 256
 97 349 60 311 39 265 c 257
 73 204 l 257
EndSplineSet
EndChar

StartChar: asterisk
Encoding: 42 42 152
Width: 435
VWidth: 0
GlyphClass: 2
Flags: HW
PickledData: "(dp1
S'org.pippin.gimp.org.kernagic'
p2
(dp3
S'lstem'
p4
I0
sS'rstem'
p5
I0
ssS'com.typemytype.robofont.layerData'
p6
(dp7
sS'org.robofab.postScriptHintData'
p8
(dp9
s."
LayerCount: 2
Fore
SplineSet
146 219 m 257
 219 362 l 257
 295 218 l 257
 301 222 375 265 380 269 c 257
 370 283 295 381 277 405 c 257
 427 439 l 257
 399 535 l 257
 254 472 l 257
 268 644 l 257
 170 644 l 257
 184 472 l 257
 40 535 l 257
 13 439 l 257
 161 405 l 257
 58 269 l 257
 146 219 l 257
EndSplineSet
EndChar

StartChar: at
Encoding: 64 64 153
Width: 856
VWidth: 0
GlyphClass: 2
Flags: HW
PickledData: "(dp1
S'org.pippin.gimp.org.kernagic'
p2
(dp3
S'lstem'
p4
I0
sS'rstem'
p5
I0
ssS'com.typemytype.robofont.layerData'
p6
(dp7
sS'org.robofab.postScriptHintData'
p8
(dp9
s."
LayerCount: 2
Fore
SplineSet
344 265 m 256
 344 354 390 431 463 431 c 256
 475 431 496 429 512 426 c 257
 495 322 l 257
 481 225 458 178 403 178 c 256
 364 178 344 208 344 265 c 256
423 -62 m 256
 512 -62 605 -41 661 1 c 257
 637 63 l 257
 578 28 500 15 425 15 c 256
 257 15 162 132 162 287 c 256
 162 447 268 589 450 589 c 256
 628 589 711 477 711 352 c 256
 711 237 665 181 623 181 c 256
 599 181 582 201 582 234 c 256
 582 288 598 373 610 464 c 257
 578 482 515 500 457 500 c 256
 324 500 249 382 249 270 c 256
 249 180 296 108 396 108 c 256
 453 108 498 150 519 207 c 257
 531 146 595 137 623 112 c 257
 706 112 801 192 801 349 c 256
 801 541 648 668 453 668 c 256
 229 668 64 502 64 289 c 256
 64 67 211 -62 423 -62 c 256
EndSplineSet
EndChar

StartChar: b
Encoding: 98 98 155
Width: 535
VWidth: 0
GlyphClass: 2
Flags: HW
PickledData: "(dp1
S'org.pippin.gimp.org.kernagic'
p2
(dp3
S'lstem'
p4
I0
sS'rstem'
p5
I0
ssS'com.fontlab.hintData'
p6
(dp7
S'vhints'
p8
((dp9
S'position'
p10
I193
sS'width'
p11
I125
s(dp12
g10
I193
sg11
I94
s(dp13
g10
I1018
sg11
I122
stp14
sS'hhints'
p15
((dp16
g10
I-19
sg11
I92
s(dp17
g10
I982
sg11
I92
stp18
ssS'com.typemytype.robofont.guides'
p19
(tsS'com.typemytype.robofont.layerData'
p20
(dp21
sS'org.robofab.postScriptHintData'
p22
(dp23
s."
HStem: -8 40 421 40
VStem: 83 54 83 40 436 53
AnchorPoint: "top" 317 464 basechar 0
LayerCount: 2
Fore
SplineSet
279 77 m 256
 232 77 207 94 189 119 c 257
 189 241 l 258
 189 347 229 386 286 386 c 256
 339 386 365 344 365 234 c 256
 365 125 331 77 279 77 c 256
314 474 m 260
 251 474 209 442 185 393 c 257
 190 487 l 257
 190 669 l 257
 60 660 l 257
 60 0 l 257
 174 0 l 257
 178 55 l 257
 200 23 242 -10 306 -10 c 256
 433 -10 498 91 498 234 c 256
 498 370 439 474 314 474 c 260
EndSplineSet
EndChar

StartChar: backslash
Encoding: 92 92 156
Width: 401
VWidth: 0
GlyphClass: 2
Flags: HW
PickledData: "(dp1
S'org.pippin.gimp.org.kernagic'
p2
(dp3
S'lstem'
p4
I0
sS'rstem'
p5
I0
ssS'com.typemytype.robofont.layerData'
p6
(dp7
S'b'
(dp8
S'name'
p9
S'backslash'
p10
sS'lib'
p11
(dp12
sS'unicodes'
p13
(tsS'width'
p14
I937
sS'contours'
p15
(tsS'components'
p16
(tsS'anchors'
p17
(tsssS'org.robofab.postScriptHintData'
p18
(dp19
s."
LayerCount: 2
Fore
SplineSet
252 4 m 257
 347 4 l 257
 137 643 l 257
 40 643 l 257
 252 4 l 257
EndSplineSet
EndChar

StartChar: bar
Encoding: 124 124 157
Width: 309
VWidth: 0
GlyphClass: 2
Flags: HW
PickledData: "(dp1
S'org.pippin.gimp.org.kernagic'
p2
(dp3
S'lstem'
p4
I0
sS'rstem'
p5
I0
ssS'com.typemytype.robofont.layerData'
p6
(dp7
S'b'
(dp8
S'name'
p9
S'bar'
p10
sS'lib'
p11
(dp12
sS'unicodes'
p13
(tsS'width'
p14
I681
sS'contours'
p15
(tsS'components'
p16
(tsS'anchors'
p17
(tsssS'org.robofab.postScriptHintData'
p18
(dp19
s."
LayerCount: 2
Fore
SplineSet
115 633 m 257
 115 -188 l 257
 197 -188 l 257
 197 633 l 257
 115 633 l 257
EndSplineSet
EndChar

StartChar: braceleft
Encoding: 123 123 158
Width: 398
VWidth: 0
GlyphClass: 2
Flags: HW
PickledData: "(dp1
S'org.pippin.gimp.org.kernagic'
p2
(dp3
S'lstem'
p4
I0
sS'rstem'
p5
I0
ssS'com.typemytype.robofont.layerData'
p6
(dp7
sS'org.robofab.postScriptHintData'
p8
(dp9
s."
LayerCount: 2
Fore
SplineSet
343 -129 m 257
 343 -55 l 257
 286 -54 268 -49 268 19 c 258
 268 153 l 258
 268 207 258 256 183 270 c 257
 258 285 268 333 268 387 c 258
 268 522 l 258
 268 590 286 596 343 597 c 257
 343 670 l 257
 246 670 172 656 172 546 c 258
 172 407 l 258
 172 348 169 312 81 312 c 257
 81 229 l 257
 170 229 172 191 172 133 c 258
 172 -5 l 258
 172 -115 246 -129 343 -129 c 257
EndSplineSet
EndChar

StartChar: braceright
Encoding: 125 125 159
Width: 398
VWidth: 0
GlyphClass: 2
Flags: HW
PickledData: "(dp1
S'org.pippin.gimp.org.kernagic'
p2
(dp3
S'lstem'
p4
I0
sS'rstem'
p5
I0
ssS'com.typemytype.robofont.layerData'
p6
(dp7
sS'org.robofab.postScriptHintData'
p8
(dp9
s."
LayerCount: 2
Fore
SplineSet
66 -129 m 257
 163 -129 237 -115 237 -5 c 258
 237 133 l 258
 237 191 238 229 327 229 c 257
 327 312 l 257
 239 312 237 348 237 407 c 258
 237 546 l 258
 237 656 163 670 66 670 c 257
 66 597 l 257
 123 596 141 590 141 522 c 258
 141 387 l 258
 141 333 152 285 227 270 c 257
 152 256 141 207 141 153 c 258
 141 19 l 258
 141 -49 123 -54 66 -55 c 257
 66 -129 l 257
EndSplineSet
EndChar

StartChar: bracketleft
Encoding: 91 91 160
Width: 352
VWidth: 0
GlyphClass: 2
Flags: HW
PickledData: "(dp1
S'org.pippin.gimp.org.kernagic'
p2
(dp3
S'lstem'
p4
I0
sS'rstem'
p5
I0
ssS'com.typemytype.robofont.layerData'
p6
(dp7
sS'org.robofab.postScriptHintData'
p8
(dp9
s."
LayerCount: 2
Fore
SplineSet
96 -108 m 257
 290 -108 l 257
 290 -28 l 257
 194 -28 l 257
 194 557 l 257
 290 557 l 257
 290 635 l 257
 96 635 l 257
 96 -108 l 257
EndSplineSet
EndChar

StartChar: bracketright
Encoding: 93 93 161
Width: 413
VWidth: 0
GlyphClass: 2
Flags: HW
PickledData: "(dp1
S'org.pippin.gimp.org.kernagic'
p2
(dp3
S'lstem'
p4
I0
sS'rstem'
p5
I0
ssS'com.typemytype.robofont.layerData'
p6
(dp7
sS'org.robofab.postScriptHintData'
p8
(dp9
s."
LayerCount: 2
Fore
SplineSet
126 -108 m 257
 320 -108 l 257
 320 635 l 257
 126 635 l 257
 126 557 l 257
 221 557 l 257
 221 -28 l 257
 126 -28 l 257
 126 -108 l 257
EndSplineSet
EndChar

StartChar: breve
Encoding: 728 728 162
Width: 393
VWidth: 0
GlyphClass: 4
Flags: HW
PickledData: "(dp1
S'org.robofab.postScriptHintData'
p2
(dp3
sS'com.typemytype.robofont.layerData'
p4
(dp5
s."
AnchorPoint: "top" 189 461 mark 0
LayerCount: 2
Fore
SplineSet
189 562 m 256
 261 562 309 604 309 676 c 257
 238 676 l 257
 238 647 216 631 189 631 c 256
 161 631 140 647 140 676 c 257
 68 676 l 257
 68 604 116 562 189 562 c 256
EndSplineSet
EndChar

StartChar: uni0311
Encoding: 785 785 163
Width: 364
VWidth: 0
GlyphClass: 4
Flags: HW
PickledData: "(dp1
S'org.robofab.postScriptHintData'
p2
(dp3
sS'com.typemytype.robofont.layerData'
p4
(dp5
s."
AnchorPoint: "top" 187 461 mark 0
LayerCount: 2
Fore
SplineSet
65 562 m 257
 137 562 l 257
 137 590 158 606 186 606 c 256
 213 606 235 590 235 562 c 257
 306 562 l 257
 306 634 258 676 186 676 c 256
 113 676 65 634 65 562 c 257
EndSplineSet
EndChar

StartChar: brokenbar
Encoding: 166 166 164
Width: 313
VWidth: 0
GlyphClass: 2
Flags: HW
PickledData: "(dp1
S'org.pippin.gimp.org.kernagic'
p2
(dp3
S'lstem'
p4
I0
sS'rstem'
p5
I0
ssS'com.typemytype.robofont.layerData'
p6
(dp7
S'b'
(dp8
S'name'
p9
S'brokenbar'
p10
sS'lib'
p11
(dp12
sS'unicodes'
p13
(tsS'width'
p14
I653
sS'contours'
p15
(tsS'components'
p16
(tsS'anchors'
p17
(tsssS'org.robofab.postScriptHintData'
p18
(dp19
s."
LayerCount: 2
Fore
SplineSet
110 634 m 257
 110 331 l 257
 195 331 l 257
 195 634 l 257
 110 634 l 257
110 157 m 257
 110 -147 l 257
 195 -147 l 257
 195 157 l 257
 110 157 l 257
EndSplineSet
EndChar

StartChar: bullet
Encoding: 8226 8226 165
Width: 406
VWidth: 0
GlyphClass: 2
Flags: HW
PickledData: "(dp1
S'org.pippin.gimp.org.kernagic'
p2
(dp3
S'lstem'
p4
I0
sS'rstem'
p5
I0
ssS'com.typemytype.robofont.layerData'
p6
(dp7
S'b'
(dp8
S'name'
p9
S'bullet'
p10
sS'lib'
p11
(dp12
sS'unicodes'
p13
(tsS'width'
p14
I908
sS'contours'
p15
(tsS'components'
p16
(tsS'anchors'
p17
(tsssS'org.robofab.postScriptHintData'
p18
(dp19
s."
LayerCount: 2
Fore
SplineSet
198 157 m 256
 281 157 348 220 348 306 c 256
 348 392 284 451 201 451 c 256
 118 451 52 389 52 303 c 256
 52 217 115 157 198 157 c 256
EndSplineSet
EndChar

StartChar: c
Encoding: 99 99 166
Width: 476
VWidth: 0
GlyphClass: 2
Flags: HW
PickledData: "(dp1
S'org.pippin.gimp.org.kernagic'
p2
(dp3
S'lstem'
p4
I0
sS'rstem'
p5
I696
ssS'com.fontlab.hintData'
p6
(dp7
S'vhints'
p8
((dp9
S'position'
p10
I128
sS'width'
p11
I120
stp12
sS'hhints'
p13
((dp14
g10
I-19
sg11
I92
s(dp15
g10
I982
sg11
I92
stp16
ssS'com.typemytype.robofont.guides'
p17
((dp18
S'y'
I417
sS'x'
I962
sS'magnetic'
p19
I5
sS'angle'
p20
F90
sS'isGlobal'
p21
I00
s(dp22
S'y'
I1020
sS'x'
I565
sg19
I5
sg20
F90
sg21
I00
s(dp23
S'y'
I994
sS'x'
I572
sg19
I5
sg20
F90
sg21
I00
stp24
sS'com.typemytype.robofont.layerData'
p25
(dp26
sS'org.robofab.postScriptHintData'
p27
(dp28
s."
HStem: -8 40 421 40
VStem: 54 52
AnchorPoint: "top" 266 464 basechar 0
AnchorPoint: "bot" 266 0 basechar 0
LayerCount: 2
Fore
SplineSet
365 143 m 257
 351 106 319 82 276 82 c 256
 216 82 169 131 169 233 c 256
 169 335 216 383 276 383 c 258
 277 383 l 258
 320 383 351 358 365 321 c 257
 371 321 l 257
 450 365 l 257
 419 434 364 474 271 474 c 260
 128 474 38 381 38 233 c 256
 38 85 128 -10 271 -10 c 256
 364 -10 420 30 450 99 c 257
 370 143 l 257
 365 143 l 257
EndSplineSet
EndChar

StartChar: caron
Encoding: 711 711 168
Width: 403
VWidth: 0
GlyphClass: 4
Flags: HW
PickledData: "(dp1
S'org.robofab.postScriptHintData'
p2
(dp3
sS'com.typemytype.robofont.layerData'
p4
(dp5
s."
AnchorPoint: "top" 198 464 mark 0
LayerCount: 2
Fore
SplineSet
133 543 m 257
 248 543 l 257
 338 706 l 257
 236 706 l 257
 191 614 l 257
 146 706 l 257
 43 706 l 257
 133 543 l 257
EndSplineSet
EndChar

StartChar: caron.alt
Encoding: 65537 -1 169
Width: 277
VWidth: 0
GlyphClass: 4
Flags: HW
PickledData: "(dp1
S'org.robofab.postScriptHintData'
p2
(dp3
sS'com.typemytype.robofont.layerData'
p4
(dp5
s."
AnchorPoint: "caron.alt" 34 464 mark 0
LayerCount: 2
Fore
SplineSet
162 485 m 257
 238 485 l 257
 269 666 l 257
 168 666 l 257
 162 485 l 257
EndSplineSet
EndChar

StartChar: cedilla
Encoding: 184 184 174
Width: 315
VWidth: 0
GlyphClass: 4
Flags: HW
PickledData: "(dp1
S'org.robofab.postScriptHintData'
p2
(dp3
sS'com.typemytype.robofont.layerData'
p4
(dp5
s."
AnchorPoint: "bot" 206 8 mark 0
LayerCount: 2
Fore
SplineSet
180 -177 m 256
 241 -177 289 -144 289 -88 c 256
 289 -41 259 -16 217 -16 c 256
 202 -16 186 -19 168 -25 c 257
 168 -54 l 257
 174 -53 180 -53 185 -53 c 256
 214 -53 225 -67 225 -85 c 256
 225 -108 205 -125 172 -125 c 256
 158 -125 144 -121 126 -115 c 257
 109 -162 l 257
 133 -173 156 -177 180 -177 c 256
EndSplineSet
EndChar

StartChar: cent
Encoding: 162 162 175
Width: 476
VWidth: 0
GlyphClass: 2
Flags: HW
PickledData: "(dp1
S'org.pippin.gimp.org.kernagic'
p2
(dp3
S'lstem'
p4
I0
sS'rstem'
p5
I0
ssS'com.typemytype.robofont.layerData'
p6
(dp7
sS'org.robofab.postScriptHintData'
p8
(dp9
s."
LayerCount: 2
Fore
SplineSet
238 21 m 257
 236 -129 l 257
 291 -129 l 257
 294 21 l 257
 238 21 l 257
240 587 m 257
 238 447 l 257
 293 447 l 257
 299 587 l 257
 240 587 l 257
EndSplineSet
Refer: 166 99 N 1 0 0 1 0 0 2
EndChar

StartChar: circumflex
Encoding: 710 710 176
Width: 393
VWidth: 0
GlyphClass: 4
Flags: HW
PickledData: "(dp1
S'org.robofab.postScriptHintData'
p2
(dp3
sS'com.typemytype.robofont.layerData'
p4
(dp5
s."
AnchorPoint: "top" 191 464 mark 0
LayerCount: 2
Fore
SplineSet
43 552 m 257
 145 552 l 257
 190 644 l 257
 235 552 l 257
 337 552 l 257
 248 716 l 257
 132 716 l 257
 43 552 l 257
EndSplineSet
EndChar

StartChar: colon
Encoding: 58 58 177
Width: 295
VWidth: 0
GlyphClass: 2
Flags: HW
PickledData: "(dp1
S'org.pippin.gimp.org.kernagic'
p2
(dp3
S'lstem'
p4
I0
sS'rstem'
p5
I0
ssS'com.typemytype.robofont.layerData'
p6
(dp7
S'b'
(dp8
S'name'
p9
S'colon'
p10
sS'lib'
p11
(dp12
sS'unicodes'
p13
(tsS'width'
p14
I653
sS'contours'
p15
(tsS'components'
p16
(tsS'anchors'
p17
(tsssS'org.robofab.postScriptHintData'
p18
(dp19
s."
LayerCount: 2
Fore
SplineSet
150 -3 m 256
 190 -3 218 21 218 61 c 256
 218 103 190 128 150 128 c 256
 111 128 83 103 83 61 c 256
 83 20 112 -3 150 -3 c 256
150 343 m 256
 190 343 218 367 218 407 c 256
 218 449 190 475 150 475 c 256
 111 475 83 449 83 407 c 256
 83 366 112 343 150 343 c 256
EndSplineSet
EndChar

StartChar: comma
Encoding: 44 44 178
Width: 284
VWidth: 0
GlyphClass: 2
Flags: HW
PickledData: "(dp1
S'org.pippin.gimp.org.kernagic'
p2
(dp3
S'lstem'
p4
I0
sS'rstem'
p5
I0
ssS'com.typemytype.robofont.layerData'
p6
(dp7
sS'org.robofab.postScriptHintData'
p8
(dp9
s."
LayerCount: 2
Fore
SplineSet
80 -144 m 257
 157 -144 l 257
 209 50 l 257
 209 115 l 257
 97 115 l 257
 97 96 80 -144 80 -144 c 257
EndSplineSet
EndChar

StartChar: uni0326
Encoding: 806 806 179
Width: 265
VWidth: 0
GlyphClass: 4
Flags: HW
PickledData: "(dp1
S'org.robofab.postScriptHintData'
p2
(dp3
s."
AnchorPoint: "bot" 147 0 mark 0
LayerCount: 2
Fore
SplineSet
62 -234 m 257
 145 -234 l 257
 145 -234 200 -53 200 -47 c 257
 94 -47 l 257
 94 -58 62 -234 62 -234 c 257
EndSplineSet
EndChar

StartChar: uni0312
Encoding: 786 786 180
Width: 256
VWidth: 0
GlyphClass: 4
Flags: HW
PickledData: "(dp1
S'org.robofab.postScriptHintData'
p2
(dp3
s."
AnchorPoint: "top" 125 461 mark 0
LayerCount: 2
Fore
SplineSet
69 555 m 257
 66 547 l 257
 181 547 l 257
 181 558 204 766 204 766 c 257
 125 766 l 257
 125 766 69 568 69 555 c 257
EndSplineSet
EndChar

StartChar: copyright
Encoding: 169 169 181
Width: 757
VWidth: 0
GlyphClass: 2
Flags: HW
PickledData: "(dp1
S'org.pippin.gimp.org.kernagic'
p2
(dp3
S'lstem'
p4
I0
sS'rstem'
p5
I0
ssS'com.typemytype.robofont.layerData'
p6
(dp7
sS'org.robofab.postScriptHintData'
p8
(dp9
s."
LayerCount: 2
Fore
SplineSet
365 -19 m 256
 545 -19 700 117 700 312 c 256
 700 508 545 644 365 644 c 256
 186 644 32 508 32 312 c 256
 32 117 186 -19 365 -19 c 256
365 40 m 256
 220 40 97 151 97 312 c 256
 97 473 220 585 365 585 c 256
 510 585 633 473 633 312 c 256
 633 152 510 40 365 40 c 256
374 106 m 256
 417 106 458 117 495 140 c 257
 477 190 l 257
 444 172 411 162 379 162 c 256
 303 162 243 215 243 315 c 256
 243 412 304 467 378 467 c 256
 409 467 443 457 475 439 c 257
 495 489 l 257
 458 512 416 524 373 524 c 256
 268 524 169 448 169 314 c 256
 169 179 269 106 374 106 c 256
EndSplineSet
EndChar

StartChar: currency
Encoding: 164 164 182
Width: 482
VWidth: 0
GlyphClass: 2
Flags: HW
PickledData: "(dp1
S'org.pippin.gimp.org.kernagic'
p2
(dp3
S'lstem'
p4
I0
sS'rstem'
p5
I0
ssS'com.typemytype.robofont.layerData'
p6
(dp7
S'b'
(dp8
S'name'
p9
S'currency'
p10
sS'lib'
p11
(dp12
sS'unicodes'
p13
(tsS'width'
p14
I1164
sS'contours'
p15
(tsS'components'
p16
(tsS'anchors'
p17
(tsssS'org.robofab.postScriptHintData'
p18
(dp19
s."
LayerCount: 2
Fore
SplineSet
358 316 m 256
 358 250 308 198 242 198 c 256
 177 198 128 250 128 316 c 256
 128 382 177 436 242 436 c 256
 307 436 358 382 358 316 c 256
347 462 m 257
 317 486 282 498 242 498 c 256
 203 498 167 484 138 462 c 257
 62 536 l 257
 19 494 l 257
 97 419 l 257
 78 388 67 353 67 316 c 256
 67 279 79 244 97 215 c 257
 20 140 l 257
 62 98 l 257
 137 171 l 257
 167 148 202 136 242 136 c 256
 282 136 318 149 347 172 c 257
 424 97 l 257
 464 140 l 257
 388 215 l 257
 407 245 419 278 419 316 c 256
 419 354 406 389 388 419 c 257
 464 493 l 257
 424 536 l 257
 347 462 l 257
EndSplineSet
EndChar

StartChar: d
Encoding: 100 100 183
Width: 534
VWidth: 0
GlyphClass: 2
Flags: HW
PickledData: "(dp1
S'org.pippin.gimp.org.kernagic'
p2
(dp3
S'lstem'
p4
I0
sS'rstem'
p5
I0
ssS'com.typemytype.robofont.layerData'
p6
(dp7
sS'com.fontlab.hintData'
p8
(dp9
S'vhints'
p10
((dp11
S'position'
p12
I114
sS'width'
p13
I166
s(dp14
g12
I907
sg13
I161
s(dp15
g12
I930
sg13
I138
stp16
sS'hhints'
p17
((dp18
g12
I-19
sg13
I127
s(dp19
g12
I953
sg13
I127
stp20
ssS'org.robofab.postScriptHintData'
p21
(dp22
s."
HStem: -8 54 408 54
VStem: 49 71 389 69 399 59
AnchorPoint: "top" 206 464 basechar 0
AnchorPoint: "caron.alt" 447 482 basechar 0
LayerCount: 2
Fore
SplineSet
259 77 m 256
 206 77 171 118 171 230 c 256
 171 350 211 387 263 387 c 256
 303 387 330 370 348 347 c 257
 348 122 l 257
 330 94 297 77 259 77 c 256
348 660 m 257
 348 490 l 257
 349 421 l 257
 325.467506798 449.648252593 289.295898438 474 232 474 c 260
 106 474 40 374 40 230 c 256
 40 92.3231176256 103.19921875 -10 230 -10 c 256
 292 -10 334 24 358 69 c 257
 363 0 l 257
 478 0 l 257
 478 669 l 257
 348 660 l 257
EndSplineSet
EndChar

StartChar: dagger
Encoding: 8224 8224 184
Width: 483
VWidth: 0
GlyphClass: 2
Flags: HW
PickledData: "(dp1
S'org.pippin.gimp.org.kernagic'
p2
(dp3
S'lstem'
p4
I0
sS'rstem'
p5
I0
ssS'com.typemytype.robofont.layerData'
p6
(dp7
S'b'
(dp8
S'name'
p9
S'dagger'
p10
sS'lib'
p11
(dp12
sS'unicodes'
p13
(tsS'width'
p14
I1050
sS'contours'
p15
(tsS'components'
p16
(tsS'anchors'
p17
(tsssS'org.robofab.postScriptHintData'
p18
(dp19
s."
LayerCount: 2
Fore
SplineSet
184 630 m 257
 184 468 l 257
 54 468 l 257
 54 392 l 257
 184 392 l 257
 184 -20 l 257
 297 -20 l 257
 297 392 l 257
 434 392 l 257
 434 468 l 257
 299 468 l 257
 299 630 l 257
 184 630 l 257
EndSplineSet
EndChar

StartChar: daggerdbl
Encoding: 8225 8225 185
Width: 472
VWidth: 0
GlyphClass: 2
Flags: HW
PickledData: "(dp1
S'org.pippin.gimp.org.kernagic'
p2
(dp3
S'lstem'
p4
I0
sS'rstem'
p5
I0
ssS'com.typemytype.robofont.layerData'
p6
(dp7
S'b'
(dp8
S'name'
p9
S'daggerdbl'
p10
sS'lib'
p11
(dp12
sS'unicodes'
p13
(tsS'width'
p14
I1022
sS'contours'
p15
(tsS'components'
p16
(tsS'anchors'
p17
(tsssS'org.robofab.postScriptHintData'
p18
(dp19
s."
LayerCount: 2
Fore
SplineSet
183 627 m 257
 183 465 l 257
 55 465 l 257
 55 388 l 257
 183 388 l 257
 183 241 l 257
 55 241 l 257
 55 166 l 257
 183 166 l 257
 183 -40 l 257
 297 -40 l 257
 297 166 l 257
 430 166 l 257
 430 241 l 257
 299 241 l 257
 299 388 l 257
 430 388 l 257
 430 465 l 257
 299 465 l 257
 299 627 l 257
 183 627 l 257
EndSplineSet
EndChar

StartChar: uni030F
Encoding: 783 783 186
Width: 446
VWidth: 0
GlyphClass: 4
Flags: HW
PickledData: "(dp1
S'org.robofab.postScriptHintData'
p2
(dp3
sS'com.typemytype.robofont.layerData'
p4
(dp5
s."
AnchorPoint: "top" 236 461 mark 0
LayerCount: 2
Fore
SplineSet
278 538 m 257
 345 538 l 257
 280 705 l 257
 177 705 l 257
 278 538 l 257
133 538 m 257
 195 538 l 257
 133 705 l 257
 19 705 l 257
 133 538 l 257
EndSplineSet
EndChar

StartChar: degree
Encoding: 176 176 189
Width: 360
VWidth: 0
GlyphClass: 2
Flags: HW
PickledData: "(dp1
S'org.pippin.gimp.org.kernagic'
p2
(dp3
S'lstem'
p4
I0
sS'rstem'
p5
I0
ssS'com.typemytype.robofont.layerData'
p6
(dp7
sS'org.robofab.postScriptHintData'
p8
(dp9
s."
LayerCount: 2
Fore
SplineSet
183 385 m 256
 266 385 315 447 315 516 c 256
 315 587 264 644 183 644 c 256
 101 644 48 587 48 516 c 256
 48 446 100 385 183 385 c 256
183 444 m 256
 147 444 114 470 114 516 c 256
 114 559 146 586 183 586 c 256
 217 586 249 559 249 516 c 256
 249 470 219 444 183 444 c 256
EndSplineSet
EndChar

StartChar: dieresis
Encoding: 168 168 190
Width: 451
VWidth: 0
GlyphClass: 4
Flags: HW
PickledData: "(dp1
S'org.robofab.postScriptHintData'
p2
(dp3
sS'com.typemytype.robofont.layerData'
p4
(dp5
s."
AnchorPoint: "top" 224 464 mark 0
LayerCount: 2
Fore
SplineSet
327 533 m 256
 366 533 388 557 388 594 c 256
 388 631 366 658 327 658 c 256
 287 658 265 631 265 594 c 256
 265 557 287 533 327 533 c 256
116 533 m 256
 155 533 176 557 176 594 c 256
 176 631 155 658 116 658 c 256
 77 658 54 631 54 594 c 256
 54 557 77 533 116 533 c 256
EndSplineSet
EndChar

StartChar: divide
Encoding: 247 247 191
Width: 532
VWidth: 0
GlyphClass: 2
Flags: HW
PickledData: "(dp1
S'org.pippin.gimp.org.kernagic'
p2
(dp3
S'lstem'
p4
I0
sS'rstem'
p5
I0
ssS'com.typemytype.robofont.layerData'
p6
(dp7
sS'org.robofab.postScriptHintData'
p8
(dp9
s."
LayerCount: 2
Fore
SplineSet
206 492 m 257
 206 380 l 257
 322 380 l 257
 322 492 l 257
 206 492 l 257
206 126 m 257
 206 10 l 257
 319 10 l 257
 319 126 l 257
 206 126 l 257
38 294 m 257
 38 212 l 257
 487 212 l 257
 487 294 l 257
 38 294 l 257
EndSplineSet
EndChar

StartChar: dollar
Encoding: 36 36 192
Width: 525
VWidth: 0
GlyphClass: 2
Flags: HW
PickledData: "(dp1
S'org.pippin.gimp.org.kernagic'
p2
(dp3
S'lstem'
p4
I0
sS'rstem'
p5
I0
ssS'com.typemytype.robofont.layerData'
p6
(dp7
S'b'
(dp8
S'name'
p9
S'dollar'
p10
sS'lib'
p11
(dp12
sS'unicodes'
p13
(tsS'width'
p14
I1221
sS'contours'
p15
(tsS'components'
p16
(tsS'anchors'
p17
(tsssS'org.robofab.postScriptHintData'
p18
(dp19
s."
LayerCount: 2
Fore
SplineSet
232 23 m 257
 232 -122 l 257
 299 -122 l 257
 297 23 l 257
 232 23 l 257
230 759 m 257
 229 615 l 257
 296 615 l 257
 296 759 l 257
 230 759 l 257
EndSplineSet
Refer: 94 83 N 1 0 0 1 0 0 2
EndChar

StartChar: dotaccent
Encoding: 729 729 193
Width: 249
VWidth: 0
GlyphClass: 4
Flags: HW
PickledData: "(dp1
S'org.robofab.postScriptHintData'
p2
(dp3
sS'com.typemytype.robofont.layerData'
p4
(dp5
s."
AnchorPoint: "top" 126 464 mark 0
LayerCount: 2
Fore
SplineSet
204 622 m 256
 204 665 174 694 126 694 c 256
 78 694 48 665 48 622 c 256
 48 576 78 548 126 548 c 256
 174 548 204 576 204 622 c 256
EndSplineSet
EndChar

StartChar: dotlessi
Encoding: 305 305 194
Width: 251
VWidth: 0
GlyphClass: 2
Flags: HW
PickledData: "(dp1
S'org.pippin.gimp.org.kernagic'
p2
(dp3
S'lstem'
p4
I0
sS'rstem'
p5
I0
ssS'com.typemytype.robofont.layerData'
p6
(dp7
sS'org.robofab.postScriptHintData'
p8
(dp9
s."
AnchorPoint: "top" 131 464 basechar 0
LayerCount: 2
Fore
SplineSet
63 464 m 257
 63 0 l 257
 195 0 l 257
 195 464 l 257
 63 464 l 257
EndSplineSet
EndChar

StartChar: uni0237
Encoding: 567 567 195
Width: 287
VWidth: 0
GlyphClass: 2
Flags: HW
PickledData: "(dp1
S'org.pippin.gimp.org.kernagic'
p2
(dp3
S'lstem'
p4
I0
sS'rstem'
p5
I0
ssS'com.typemytype.robofont.layerData'
p6
(dp7
sS'com.fontlab.hintData'
p8
(dp9
S'vhints'
p10
((dp11
S'position'
p12
I111
sS'width'
p13
I142
stp14
sS'hhints'
p15
((dp16
g12
I-479
sg13
I112
stp17
ssS'org.robofab.postScriptHintData'
p18
(dp19
s."
HStem: -205 48
VStem: 47 61
LayerCount: 2
Fore
SplineSet
90 464 m 257
 90 3 l 258
 90 -66 82 -84 12 -111 c 257
 -24 -126 l 257
 18 -220 l 257
 53 -207 l 257
 162 -167 220 -137 220 -11 c 258
 220 464 l 257
 90 464 l 257
EndSplineSet
EndChar

StartChar: e
Encoding: 101 101 196
Width: 505
VWidth: 0
GlyphClass: 2
Flags: HW
PickledData: "(dp1
S'org.pippin.gimp.org.kernagic'
p2
(dp3
S'lstem'
p4
I0
sS'rstem'
p5
I747
ssS'com.typemytype.robofont.layerData'
p6
(dp7
sS'com.fontlab.hintData'
p8
(dp9
S'hhints'
p10
((dp11
S'position'
p12
I-19
sS'width'
p13
I94
s(dp14
g12
I982
sg13
I92
stp15
ssS'org.robofab.postScriptHintData'
p16
(dp17
s."
HStem: -8 40 421 40
AnchorPoint: "top" 268 464 basechar 0
AnchorPoint: "bot" 278 0 basechar 0
LayerCount: 2
Fore
SplineSet
171 268 m 257
 176 350 216 388 272 388 c 256
 327 388 355 350 355 268 c 257
 171 268 l 257
280 -10 m 256
 354 -10 420 14 457 46 c 257
 428 116 l 257
 421 116 l 257
 384 93 344 77 295 77 c 256
 227 77 176 117 169 196 c 257
 459 196 l 257
 459 196 464 220 464 250 c 256
 462 382 404 474 265 474 c 260
 131 474 38 381 38 232 c 256
 38 84 135 -10 280 -10 c 256
EndSplineSet
EndChar

StartChar: eight
Encoding: 56 56 204
Width: 575
VWidth: 0
GlyphClass: 2
Flags: HW
PickledData: "(dp1
S'org.pippin.gimp.org.kernagic'
p2
(dp3
S'lstem'
p4
I0
sS'rstem'
p5
I0
ssS'com.typemytype.robofont.layerData'
p6
(dp7
sS'org.robofab.postScriptHintData'
p8
(dp9
s."
LayerCount: 2
Fore
SplineSet
290 356 m 257
 235 375 202 417 202 471 c 256
 202 519 237 552 290 552 c 256
 342 552 374 520 374 471 c 256
 374 417 344 375 290 356 c 257
290 76 m 260
 229 76 198 108 198 170 c 256
 198 235 236 279 290 295 c 257
 343 279 378 233 378 170 c 256
 378 107 352 76 290 76 c 260
290 -10 m 260
 428 -10 515 52 515 164 c 256
 515 247 474 307 407 332 c 257
 466 355 503 401 503 477 c 256
 503 579 413 636 289 636 c 256
 165 636 73 579 73 477 c 256
 73 400 113 352 173 332 c 257
 103 307 61 248 61 164 c 256
 61 52 151 -10 290 -10 c 260
EndSplineSet
EndChar

StartChar: emdash
Encoding: 8212 8212 207
Width: 945
VWidth: 0
GlyphClass: 2
Flags: HW
PickledData: "(dp1
S'org.robofab.postScriptHintData'
p2
(dp3
sS'com.typemytype.robofont.layerData'
p4
(dp5
s."
LayerCount: 2
Fore
SplineSet
25 201 m 257
 920 201 l 257
 920 283 l 257
 25 283 l 257
 25 201 l 257
EndSplineSet
EndChar

StartChar: endash
Encoding: 8211 8211 208
Width: 520
VWidth: 0
GlyphClass: 2
Flags: HW
PickledData: "(dp1
S'org.pippin.gimp.org.kernagic'
p2
(dp3
S'lstem'
p4
I0
sS'rstem'
p5
I0
ssS'com.typemytype.robofont.layerData'
p6
(dp7
sS'org.robofab.postScriptHintData'
p8
(dp9
s."
LayerCount: 2
Fore
SplineSet
50 199 m 257
 471 199 l 257
 471 284 l 257
 50 284 l 257
 50 199 l 257
EndSplineSet
EndChar

StartChar: eng
Encoding: 331 331 209
Width: 526
VWidth: 0
GlyphClass: 2
Flags: HW
PickledData: "(dp1
S'org.robofab.postScriptHintData'
p2
(dp3
sS'com.typemytype.robofont.layerData'
p4
(dp5
s."
LayerCount: 2
Fore
SplineSet
349 71 m 257
 349 -7 l 257
 349 -104 335 -122 220 -122 c 257
 227 -207 l 257
 422 -202 480 -152 480 -19 c 258
 480 71 l 257
 349 71 l 257
EndSplineSet
Refer: 277 110 N 1 0 0 1 0 0 2
EndChar

StartChar: equal
Encoding: 61 61 211
Width: 518
VWidth: 0
GlyphClass: 2
Flags: HW
PickledData: "(dp1
S'org.pippin.gimp.org.kernagic'
p2
(dp3
S'lstem'
p4
I0
sS'rstem'
p5
I0
ssS'com.typemytype.robofont.layerData'
p6
(dp7
S'b'
(dp8
S'name'
p9
S'equal'
p10
sS'lib'
p11
(dp12
sS'unicodes'
p13
(tsS'width'
p14
I1050
sS'contours'
p15
(tsS'components'
p16
(tsS'anchors'
p17
(tsssS'org.robofab.postScriptHintData'
p18
(dp19
s."
LayerCount: 2
Fore
SplineSet
45 286 m 257
 45 200 l 257
 467 200 l 257
 467 286 l 257
 45 286 l 257
45 465 m 257
 45 380 l 257
 467 380 l 257
 467 465 l 257
 45 465 l 257
EndSplineSet
EndChar

StartChar: estimated
Encoding: 8494 8494 212
Width: 505
VWidth: 0
GlyphClass: 2
Flags: HW
PickledData: "(dp1
S'org.robofab.postScriptHintData'
p2
(dp3
sS'com.typemytype.robofont.layerData'
p4
(dp5
S'b'
(dp6
S'name'
p7
S'estimated'
p8
sS'lib'
p9
(dp10
sS'unicodes'
p11
(tsS'width'
p12
I1223
sS'contours'
p13
(tsS'components'
p14
(tsS'anchors'
p15
(tsss."
LayerCount: 2
Fore
SplineSet
402 254 m 257
 140 254 l 257
 147 364 196 437 269 437 c 256
 358 437 402 353 402 254 c 257
33 227 m 256
 33 93 113 -9 274 -9 c 256
 362 -9 418 28 460 79 c 257
 439 101 l 257
 398 56 350 23 274 23 c 256
 177 23 140 104 140 220 c 257
 464 220 l 257
 464 367 401 463 266 463 c 256
 130 463 33 362 33 227 c 256
EndSplineSet
EndChar

StartChar: eth
Encoding: 240 240 213
Width: 505
VWidth: 0
GlyphClass: 2
Flags: HW
PickledData: "(dp1
S'org.pippin.gimp.org.kernagic'
p2
(dp3
S'lstem'
p4
I0
sS'rstem'
p5
I0
ssS'com.typemytype.robofont.layerData'
p6
(dp7
sS'org.robofab.postScriptHintData'
p8
(dp9
s."
LayerCount: 2
Fore
SplineSet
382 205 m 256
 382 127 337 75 257 75 c 256
 175 75 131 132 131 205 c 256
 131 282 174 334 255 334 c 256
 336 334 382 279 382 205 c 256
76 650 m 257
 165 562 l 257
 87 529 l 257
 113 457 l 257
 219 499 l 257
 248 470 291 419 310 392 c 257
 292 400 265 410 238 410 c 256
 114 410 30 328 30 205 c 256
 30 81 119 -10 255 -10 c 256
 393 -10 477 71 477 203 c 256
 477 264 460 321 435 366 c 256
 403 422 357 474 303 536 c 257
 394 572 l 257
 366 646 l 257
 250 599 l 257
 200 650 l 257
 76 650 l 257
EndSplineSet
EndChar

StartChar: exclam
Encoding: 33 33 214
Width: 320
VWidth: 0
GlyphClass: 2
Flags: HW
PickledData: "(dp1
S'org.pippin.gimp.org.kernagic'
p2
(dp3
S'lstem'
p4
I0
sS'rstem'
p5
I0
ssS'com.typemytype.robofont.layerData'
p6
(dp7
sS'org.robofab.postScriptHintData'
p8
(dp9
s."
LayerCount: 2
Fore
SplineSet
158 -4 m 256
 196 -4 221 26 221 61 c 256
 221 97 196 127 158 127 c 256
 120 127 94 97 94 61 c 256
 94 27 120 -4 158 -4 c 256
137 196 m 257
 184 196 l 257
 210 567 l 257
 210 658 l 257
 108 658 l 257
 108 567 l 257
 137 196 l 257
EndSplineSet
EndChar

StartChar: f
Encoding: 102 102 216
Width: 349
VWidth: 0
GlyphClass: 2
Flags: HW
PickledData: "(dp1
S'org.pippin.gimp.org.kernagic'
p2
(dp3
S'lstem'
p4
I182
sS'rstem'
p5
I417
ssS'com.typemytype.robofont.layerData'
p6
(dp7
sS'com.fontlab.hintData'
p8
(dp9
S'vhints'
p10
((dp11
S'position'
p12
I269
sS'width'
p13
I166
stp14
sS'hhints'
p15
((dp16
g12
I952
sg13
I89
s(dp17
g12
I1358
sg13
I122
stp18
ssS'org.robofab.postScriptHintData'
p19
(dp20
s."
HStem: 408 38 582 53
VStem: 115 71
AnchorPoint: "top" 190 624 basechar 0
LayerCount: 2
Fore
SplineSet
219 464 m 257
 219 497 l 258
 219 550 241 565 290 565 c 256
 305 565 324 563 344 560 c 257
 348 640 l 257
 338 642 304 651 245 651 c 256
 155 651 87 622 87 497 c 258
 87 462 l 257
 21 454 l 257
 19 388 l 257
 87 388 l 257
 87 0 l 257
 219 0 l 257
 219 388 l 257
 333 388 l 257
 333 464 l 257
 219 464 l 257
EndSplineSet
EndChar

StartChar: five
Encoding: 53 53 217
Width: 575
VWidth: 0
GlyphClass: 2
Flags: HW
PickledData: "(dp1
S'org.pippin.gimp.org.kernagic'
p2
(dp3
S'lstem'
p4
I0
sS'rstem'
p5
I0
ssS'com.typemytype.robofont.layerData'
p6
(dp7
sS'org.robofab.postScriptHintData'
p8
(dp9
s."
LayerCount: 2
Fore
SplineSet
291 319 m 256
 352 319 385 266 385 210 c 256
 385 141 350 91 277 91 c 256
 228 91 176 110 147 157 c 257
 139 157 l 257
 74 87 l 257
 113 28 181 -10 289 -10 c 256
 434 -10 510 91 510 205 c 256
 510 303 448 407 313 407 c 256
 268 407 237 394 212 372 c 257
 231 535 l 257
 466 535 l 257
 479 626 l 257
 126 626 l 257
 101 282 l 257
 198 266 l 257
 213 301 244 319 291 319 c 256
EndSplineSet
EndChar

StartChar: florin
Encoding: 402 402 219
Width: 493
VWidth: 0
GlyphClass: 2
Flags: HW
PickledData: "(dp1
S'org.robofab.postScriptHintData'
p2
(dp3
s."
LayerCount: 2
Fore
SplineSet
204 543 m 258
 188 445 l 257
 99 445 l 257
 92 413 l 257
 184 413 l 257
 118 47 l 257
 100 -59 94 -99 30 -99 c 256
 13 -99 -6 -95 -31 -91 c 257
 -42 -139 l 257
 -7 -151 24 -158 52 -158 c 256
 142 -158 200 -95 226 49 c 258
 291 413 l 257
 418 413 l 257
 425 445 l 257
 299 445 l 257
 319 560 l 258
 330 621 355 651 401 651 c 256
 448 651 459 614 464 560 c 257
 528 560 l 257
 525 661 481 719 389 719 c 256
 285 719 222 657 204 543 c 258
EndSplineSet
EndChar

StartChar: foundryicon
Encoding: 65539 -1 220
Width: 576
VWidth: 0
GlyphClass: 2
Flags: HW
PickledData: "(dp1
S'org.robofab.postScriptHintData'
p2
(dp3
s."
LayerCount: 2
Fore
SplineSet
120 1 m 257
 287 119 l 257
 457 1 l 257
 395 198 l 257
 563 324 l 257
 355 324 l 257
 287 521 l 257
 222 324 l 257
 15 324 l 257
 182 198 l 257
 120 1 l 257
208 174 m 257
 208 288 l 257
 254 288 l 257
 327 224 l 257
 327 288 l 257
 371 288 l 257
 371 174 l 257
 327 174 l 257
 254 237 l 257
 254 174 l 257
 208 174 l 257
EndSplineSet
EndChar

StartChar: four
Encoding: 52 52 221
Width: 575
VWidth: 0
GlyphClass: 2
Flags: HW
PickledData: "(dp1
S'org.pippin.gimp.org.kernagic'
p2
(dp3
S'lstem'
p4
I0
sS'rstem'
p5
I0
ssS'com.typemytype.robofont.layerData'
p6
(dp7
sS'org.robofab.postScriptHintData'
p8
(dp9
s."
LayerCount: 2
Fore
SplineSet
151 234 m 257
 310 495 l 261
 310 234 l 257
 151 234 l 257
310 0 m 257
 447 0 l 257
 447 146 l 257
 529 146 l 257
 534 235 l 257
 447 235 l 257
 447 626 l 261
 289 626 l 261
 45 229 l 257
 56 146 l 257
 310 146 l 257
 310 0 l 257
EndSplineSet
EndChar

StartChar: fraction
Encoding: 8260 8260 222
Width: 487
VWidth: 0
GlyphClass: 2
Flags: HW
PickledData: "(dp1
S'org.robofab.postScriptHintData'
p2
(dp3
s."
LayerCount: 2
Fore
SplineSet
30 0 m 257
 114 0 l 257
 507 660 l 257
 426 660 l 257
 30 0 l 257
EndSplineSet
EndChar

StartChar: g
Encoding: 103 103 223
Width: 532
VWidth: 0
GlyphClass: 2
Flags: HW
PickledData: "(dp1
S'org.pippin.gimp.org.kernagic'
p2
(dp3
S'lstem'
p4
I0
sS'rstem'
p5
I0
ssS'com.typemytype.robofont.layerData'
p6
(dp7
sS'com.fontlab.hintData'
p8
(dp9
S'vhints'
p10
((dp11
S'position'
p12
I128
sS'width'
p13
I122
s(dp14
g12
I977
sg13
I125
s(dp15
g12
I977
sg13
I36
stp16
sS'hhints'
p17
((dp18
g12
I-426
sg13
I101
s(dp19
g12
I0
sg13
I93
s(dp20
g12
I982
sg13
I92
stp21
ssS'org.robofab.postScriptHintData'
p22
(dp23
s."
HStem: -183 43 0 40 421 40
VStem: 54 53 419 54 419 16
AnchorPoint: "top" 252 464 basechar 0
LayerCount: 2
Fore
SplineSet
262 77 m 256
 204 77 170 128 170 239 c 256
 170 354 215 386 263 386 c 256
 304 386 327 373 348 348 c 257
 348 110 l 257
 330 90 295 77 262 77 c 256
247 -216 m 256
 383 -216 476 -149 476 3 c 258
 476 464 l 257
 350 464 l 257
 349 422 l 257
 325.720478514 449.328133918 289.666992188 474 234 474 c 260
 134 474 38 400 38 239 c 256
 38 54 135 -3 230 -3 c 256
 291 -3 330 18 353 43 c 257
 356 8 l 258
 356 2 356 -5 356 -10 c 256
 356 -99 304 -129 228 -129 c 256
 191 -129 148 -122 109 -109 c 257
 97 -109 l 257
 88 -195 l 257
 134 -209 189 -216 247 -216 c 256
EndSplineSet
EndChar

StartChar: germandbls
Encoding: 223 223 229
Width: 566
VWidth: 0
GlyphClass: 2
Flags: HW
PickledData: "(dp1
S'org.pippin.gimp.org.kernagic'
p2
(dp3
S'lstem'
p4
I0
sS'rstem'
p5
I0
ssS'com.typemytype.robofont.layerData'
p6
(dp7
S'b'
(dp8
S'name'
p9
S'germandbls'
p10
sS'lib'
p11
(dp12
sS'unicodes'
p13
(tsS'width'
p14
I1278
sS'contours'
p15
(tsS'components'
p16
(tsS'anchors'
p17
(tsssS'org.robofab.postScriptHintData'
p18
(dp19
s."
LayerCount: 2
Fore
SplineSet
384 -9 m 256
 491 -9 543 45 543 136 c 256
 543 271 379 302 379 333 c 256
 379 358 471 395 471 492 c 256
 471 590 386 641 274 641 c 256
 145 641 57 564 57 438 c 258
 57 0 l 257
 189 0 l 257
 189 425 l 258
 189 505 217 549 281 549 c 256
 323 549 350 531 350 491 c 256
 350 415 274 395 274 321 c 256
 274 238 405 222 405 139 c 256
 405 103 385 83 348 83 c 256
 316 83 279 95 261 105 c 257
 235 23 l 257
 284 3 339 -9 384 -9 c 256
EndSplineSet
EndChar

StartChar: grave
Encoding: 96 96 230
Width: 442
VWidth: 0
GlyphClass: 4
Flags: HW
PickledData: "(dp1
S'org.robofab.postScriptHintData'
p2
(dp3
sS'com.typemytype.robofont.layerData'
p4
(dp5
s."
AnchorPoint: "top" 228 461 mark 0
LayerCount: 2
Fore
SplineSet
179 518 m 257
 254 518 l 257
 176 688 l 257
 37 688 l 257
 179 518 l 257
EndSplineSet
EndChar

StartChar: greater
Encoding: 62 62 231
Width: 474
VWidth: 0
GlyphClass: 2
Flags: HW
PickledData: "(dp1
S'org.pippin.gimp.org.kernagic'
p2
(dp3
S'lstem'
p4
I0
sS'rstem'
p5
I0
ssS'com.typemytype.robofont.layerData'
p6
(dp7
S'b'
(dp8
S'name'
p9
S'greater'
p10
sS'lib'
p11
(dp12
sS'unicodes'
p13
(tsS'width'
p14
I1107
sS'contours'
p15
(tsS'components'
p16
(tsS'anchors'
p17
(tsssS'org.robofab.postScriptHintData'
p18
(dp19
s."
LayerCount: 2
Fore
SplineSet
37 446 m 257
 313 302 l 257
 37 171 l 257
 37 75 l 257
 441 272 l 257
 441 327 l 257
 37 539 l 257
 37 446 l 257
EndSplineSet
EndChar

StartChar: greaterequal
Encoding: 8805 8805 232
Width: 510
VWidth: 0
GlyphClass: 2
Flags: HW
PickledData: "(dp1
S'org.pippin.gimp.org.kernagic'
p2
(dp3
S'lstem'
p4
I0
sS'rstem'
p5
I0
ssS'com.typemytype.robofont.layerData'
p6
(dp7
S'b'
(dp8
S'name'
p9
S'greaterequal'
p10
sS'lib'
p11
(dp12
sS'unicodes'
p13
(tsS'width'
p14
I1192
sS'contours'
p15
(tsS'components'
p16
(tsS'anchors'
p17
(tsssS'org.robofab.postScriptHintData'
p18
(dp19
s."
LayerCount: 2
Fore
SplineSet
58 2 m 257
 457 2 l 257
 457 72 l 257
 58 72 l 257
 58 2 l 257
63 95 m 257
 455 299 l 257
 455 349 l 257
 63 559 l 257
 63 473 l 257
 361 324 l 257
 63 183 l 257
 63 95 l 257
EndSplineSet
EndChar

StartChar: guillemotleft
Encoding: 171 171 233
Width: 442
VWidth: 0
GlyphClass: 2
Flags: HW
PickledData: "(dp1
S'org.pippin.gimp.org.kernagic'
p2
(dp3
S'lstem'
p4
I0
sS'rstem'
p5
I0
ssS'com.typemytype.robofont.layerData'
p6
(dp7
S'b'
(dp8
S'name'
p9
S'guillemotleft'
p10
sS'lib'
p11
(dp12
sS'unicodes'
p13
(tsS'width'
p14
I994
sS'contours'
p15
(tsS'components'
p16
(tsS'anchors'
p17
(tsssS'org.robofab.postScriptHintData'
p18
(dp19
s."
LayerCount: 2
Fore
SplineSet
330 57 m 257
 407 57 l 257
 298 244 l 257
 409 429 l 257
 331 429 l 257
 198 242 l 257
 330 57 l 257
155 57 m 257
 232 57 l 257
 121 244 l 257
 234 429 l 257
 155 429 l 257
 22 242 l 257
 155 57 l 257
EndSplineSet
EndChar

StartChar: guillemotright
Encoding: 187 187 234
Width: 442
VWidth: 0
GlyphClass: 2
Flags: HW
PickledData: "(dp1
S'org.pippin.gimp.org.kernagic'
p2
(dp3
S'lstem'
p4
I0
sS'rstem'
p5
I0
ssS'com.typemytype.robofont.layerData'
p6
(dp7
sS'org.robofab.postScriptHintData'
p8
(dp9
s."
LayerCount: 2
Fore
SplineSet
277 57 m 257
 412 245 l 257
 279 429 l 257
 205 429 l 257
 312 242 l 257
 200 57 l 257
 277 57 l 257
107 57 m 257
 241 245 l 257
 108 429 l 257
 32 429 l 257
 141 242 l 257
 28 57 l 257
 107 57 l 257
EndSplineSet
EndChar

StartChar: guilsinglleft
Encoding: 8249 8249 235
Width: 356
VWidth: 0
GlyphClass: 2
Flags: HW
PickledData: "(dp1
S'org.robofab.postScriptHintData'
p2
(dp3
s."
LayerCount: 2
Fore
SplineSet
193 71 m 257
 274 71 l 257
 162 250 l 257
 277 435 l 257
 196 435 l 257
 75 250 l 257
 193 71 l 257
EndSplineSet
EndChar

StartChar: guilsinglright
Encoding: 8250 8250 236
Width: 328
VWidth: 0
GlyphClass: 2
Flags: HW
PickledData: "(dp1
S'org.pippin.gimp.org.kernagic'
p2
(dp3
S'lstem'
p4
I0
sS'rstem'
p5
I0
ssS'com.typemytype.robofont.layerData'
p6
(dp7
S'b'
(dp8
S'name'
p9
S'guilsinglright'
p10
sS'lib'
p11
(dp12
sS'unicodes'
p13
(tsS'width'
p14
I766
sS'contours'
p15
(tsS'components'
p16
(tsS'anchors'
p17
(tsssS'org.robofab.postScriptHintData'
p18
(dp19
s."
LayerCount: 2
Fore
SplineSet
60 71 m 257
 141 71 l 257
 263 249 l 257
 146 426 l 257
 64 426 l 257
 175 250 l 257
 60 71 l 257
EndSplineSet
EndChar

StartChar: h
Encoding: 104 104 237
Width: 537
VWidth: 0
GlyphClass: 2
Flags: HW
PickledData: "(dp1
S'org.pippin.gimp.org.kernagic'
p2
(dp3
S'lstem'
p4
I0
sS'rstem'
p5
I0
ssS'com.typemytype.robofont.layerData'
p6
(dp7
sS'com.fontlab.hintData'
p8
(dp9
S'vhints'
p10
((dp11
S'position'
p12
I193
sS'width'
p13
I122
s(dp14
g12
I910
sg13
I122
stp15
sS'hhints'
p16
((dp17
g12
I982
sg13
I92
stp18
ssS'org.robofab.postScriptHintData'
p19
(dp20
s."
HStem: 421 40
VStem: 83 53 390 53
AnchorPoint: "top" 246 637 basechar 0
LayerCount: 2
Fore
SplineSet
62 0 m 257
 194 0 l 257
 194 263 l 258
 194 341 224 386 284 386 c 256
 331 386 351 357 351 273 c 258
 351 0 l 257
 483 0 l 257
 483 288 l 258
 483 403 434 474 331 474 c 260
 258 474 215 436 191 380 c 257
 194 495 l 257
 194 669 l 257
 62 660 l 257
 62 0 l 257
EndSplineSet
EndChar

StartChar: hungarumlaut
Encoding: 733 733 240
Width: 399
VWidth: 0
GlyphClass: 4
Flags: HW
PickledData: "(dp1
S'org.robofab.postScriptHintData'
p2
(dp3
sS'com.typemytype.robofont.layerData'
p4
(dp5
s."
AnchorPoint: "top" 165 461 mark 0
LayerCount: 2
Fore
SplineSet
205 538 m 257
 269 538 l 257
 382 705 l 257
 269 705 l 257
 205 538 l 257
56 538 m 257
 123 538 l 257
 224 705 l 257
 121 705 l 257
 56 538 l 257
EndSplineSet
EndChar

StartChar: hyphen
Encoding: 45 45 241
Width: 398
VWidth: 0
GlyphClass: 4
Flags: HW
PickledData: "(dp1
S'org.pippin.gimp.org.kernagic'
p2
(dp3
S'lstem'
p4
I0
sS'rstem'
p5
I0
ssS'com.typemytype.robofont.layerData'
p6
(dp7
sS'org.robofab.postScriptHintData'
p8
(dp9
s."
LayerCount: 2
Fore
SplineSet
65 194 m 257
 335 194 l 257
 335 279 l 257
 65 279 l 257
 65 194 l 257
EndSplineSet
EndChar

StartChar: i
Encoding: 105 105 242
Width: 267
VWidth: 0
GlyphClass: 2
Flags: HW
PickledData: "(dp1
S'org.robofab.postScriptHintData'
p2
(dp3
sS'com.typemytype.robofont.layerData'
p4
(dp5
s."
LayerCount: 2
Fore
SplineSet
214 622 m 256
 214 665 184 694 136 694 c 256
 88 694 58 665 58 622 c 256
 58 576 88 548 136 548 c 256
 184 548 214 576 214 622 c 256
68 464 m 261
 68 0 l 257
 200 0 l 257
 200 464 l 261
 68 464 l 261
EndSplineSet
EndChar

StartChar: infinity
Encoding: 8734 8734 253
Width: 748
VWidth: 0
GlyphClass: 2
Flags: HW
PickledData: "(dp1
S'org.pippin.gimp.org.kernagic'
p2
(dp3
S'lstem'
p4
I0
sS'rstem'
p5
I0
ssS'com.typemytype.robofont.layerData'
p6
(dp7
S'b'
(dp8
S'name'
p9
S'infinity'
p10
sS'lib'
p11
(dp12
sS'unicodes'
p13
(tsS'width'
p14
I1647
sS'contours'
p15
(tsS'components'
p16
(tsS'anchors'
p17
(tsssS'org.robofab.postScriptHintData'
p18
(dp19
s."
LayerCount: 2
Fore
SplineSet
634 289 m 256
 634 230 609 189 555 189 c 256
 512 189 480 217 435 277 c 257
 469 325 507 365 553 365 c 256
 600 365 634 329 634 289 c 256
320 277 m 257
 284 226 242 189 198 189 c 256
 147 189 112 233 112 277 c 256
 112 325 145 365 196 365 c 256
 245 365 284 330 320 277 c 257
377 324 m 257
 324 396 269 443 196 443 c 256
 111 443 44 374 44 287 c 256
 44 191 101 109 198 109 c 256
 270 109 325 158 377 227 c 257
 436 147 489 109 554 109 c 256
 640 109 707 179 707 279 c 256
 707 374 652 443 555 443 c 256
 480 443 426 393 377 324 c 257
EndSplineSet
EndChar

StartChar: integral
Encoding: 8747 8747 254
Width: 346
VWidth: 0
GlyphClass: 2
Flags: HW
PickledData: "(dp1
S'org.pippin.gimp.org.kernagic'
p2
(dp3
S'lstem'
p4
I0
sS'rstem'
p5
I0
ssS'com.typemytype.robofont.layerData'
p6
(dp7
S'b'
(dp8
S'name'
p9
S'integral'
p10
sS'lib'
p11
(dp12
sS'unicodes'
p13
(tsS'width'
p14
I994
sS'contours'
p15
(tsS'components'
p16
(tsS'anchors'
p17
(tsssS'org.robofab.postScriptHintData'
p18
(dp19
s."
LayerCount: 2
Fore
SplineSet
128 505 m 258
 128 -18 l 258
 128 -94 101 -109 64 -109 c 256
 52 -109 39 -107 23 -104 c 257
 23 -195 l 257
 49 -202 73 -205 92 -205 c 256
 185 -205 234 -133 234 -15 c 258
 234 509 l 258
 234 577 246 608 294 608 c 256
 304 608 316 606 329 604 c 257
 329 678 l 257
 301 684 277 688 257 688 c 256
 167 688 128 620 128 505 c 258
EndSplineSet
EndChar

StartChar: j
Encoding: 106 106 257
Width: 283
VWidth: 0
GlyphClass: 2
Flags: HW
PickledData: "(dp1
S'org.robofab.postScriptHintData'
p2
(dp3
sS'com.typemytype.robofont.layerData'
p4
(dp5
s."
LayerCount: 2
Fore
SplineSet
233 622 m 256
 233 665 203 694 155 694 c 256
 107 694 77 665 77 622 c 256
 77 576 107 548 155 548 c 256
 203 548 233 576 233 622 c 256
88 464 m 257
 88 3 l 258
 88 -66 81 -84 11 -111 c 257
 -25 -126 l 257
 16 -220 l 257
 51 -207 l 257
 160 -167 220 -137 220 -11 c 258
 220 464 l 257
 88 464 l 257
EndSplineSet
EndChar

StartChar: k
Encoding: 107 107 259
Width: 506
VWidth: 0
GlyphClass: 2
Flags: HW
PickledData: "(dp1
S'org.pippin.gimp.org.kernagic'
p2
(dp3
S'lstem'
p4
I0
sS'rstem'
p5
I671
ssS'com.typemytype.robofont.layerData'
p6
(dp7
sS'org.robofab.postScriptHintData'
p8
(dp9
s."
AnchorPoint: "bot" 275 0 basechar 0
LayerCount: 2
Fore
SplineSet
62 0 m 257
 194 0 l 257
 194 179 l 257
 224 207 l 257
 367 0 l 257
 500 0 l 257
 500 12 l 257
 321 260 l 257
 492 456 l 257
 492 464 l 257
 353 464 l 257
 192 282 l 257
 194 350 l 257
 194 669 l 257
 62 660 l 257
 62 0 l 257
EndSplineSet
EndChar

StartChar: kgreenlandic
Encoding: 312 312 261
Width: 496
VWidth: 0
GlyphClass: 2
Flags: HW
PickledData: "(dp1
S'org.robofab.postScriptHintData'
p2
(dp3
s."
LayerCount: 2
Fore
SplineSet
52 0 m 257
 157 0 l 257
 157 158 l 257
 196 197 l 257
 345 0 l 257
 465 0 l 257
 465 4 l 257
 276 252 l 257
 454 456 l 257
 454 464 l 257
 332 464 l 257
 155 257 l 257
 157 350 l 257
 157 464 l 257
 52 464 l 257
 52 0 l 257
EndSplineSet
EndChar

StartChar: l
Encoding: 108 108 262
Width: 311
VWidth: 0
GlyphClass: 2
Flags: HW
PickledData: "(dp1
S'org.pippin.gimp.org.kernagic'
p2
(dp3
S'lstem'
p4
I0
sS'rstem'
p5
I238
ssS'com.typemytype.robofont.layerData'
p6
(dp7
sS'com.fontlab.hintData'
p8
(dp9
S'vhints'
p10
((dp11
S'position'
p12
I193
sS'width'
p13
I122
stp14
sS'hhints'
p15
((dp16
g12
I-11
sg13
I87
stp17
ssS'org.robofab.postScriptHintData'
p18
(dp19
s."
HStem: -4 37
VStem: 83 53
AnchorPoint: "top" 140 659 basechar 0
LayerCount: 2
Fore
SplineSet
249 -4 m 258
 287 -3 l 257
 292 82 l 257
 241 85 l 258
 202 88 193 102 193 139 c 258
 193 669 l 257
 61 660 l 257
 61 148 l 258
 61 35 110 -4 229 -4 c 256
 235 -4 242 -4 249 -4 c 258
EndSplineSet
EndChar

StartChar: less
Encoding: 60 60 267
Width: 474
VWidth: 0
GlyphClass: 2
Flags: HW
PickledData: "(dp1
S'org.pippin.gimp.org.kernagic'
p2
(dp3
S'lstem'
p4
I0
sS'rstem'
p5
I0
ssS'com.typemytype.robofont.layerData'
p6
(dp7
S'b'
(dp8
S'name'
p9
S'less'
p10
sS'lib'
p11
(dp12
sS'unicodes'
p13
(tsS'width'
p14
I1107
sS'contours'
p15
(tsS'components'
p16
(tsS'anchors'
p17
(tsssS'org.robofab.postScriptHintData'
p18
(dp19
s."
LayerCount: 2
Fore
SplineSet
430 74 m 257
 430 170 l 257
 154 302 l 257
 430 445 l 257
 430 538 l 257
 26 327 l 257
 26 273 l 257
 430 74 l 257
EndSplineSet
EndChar

StartChar: lessequal
Encoding: 8804 8804 268
Width: 510
VWidth: 0
GlyphClass: 2
Flags: HW
PickledData: "(dp1
S'org.robofab.postScriptHintData'
p2
(dp3
sS'com.typemytype.robofont.layerData'
p4
(dp5
s."
LayerCount: 2
Fore
SplineSet
50 -1 m 257
 452 -1 l 257
 452 68 l 257
 50 68 l 257
 50 -1 l 257
448 129 m 257
 448 216 l 257
 165 342 l 257
 449 473 l 257
 449 559 l 257
 58 366 l 257
 58 315 l 257
 448 129 l 257
EndSplineSet
EndChar

StartChar: logicalnot
Encoding: 172 172 269
Width: 518
VWidth: 0
GlyphClass: 2
Flags: HW
PickledData: "(dp1
S'org.pippin.gimp.org.kernagic'
p2
(dp3
S'lstem'
p4
I0
sS'rstem'
p5
I0
ssS'com.typemytype.robofont.layerData'
p6
(dp7
sS'org.robofab.postScriptHintData'
p8
(dp9
s."
LayerCount: 2
Fore
SplineSet
41 361 m 257
 41 277 l 257
 385 277 l 257
 385 107 l 257
 466 107 l 257
 466 361 l 257
 41 361 l 257
EndSplineSet
EndChar

StartChar: lozenge
Encoding: 9674 9674 270
Width: 515
VWidth: 0
GlyphClass: 2
Flags: HW
PickledData: "(dp1
S'org.pippin.gimp.org.kernagic'
p2
(dp3
S'lstem'
p4
I0
sS'rstem'
p5
I0
ssS'com.typemytype.robofont.layerData'
p6
(dp7
S'b'
(dp8
S'name'
p9
S'lozenge'
p10
sS'lib'
p11
(dp12
sS'unicodes'
p13
(tsS'width'
p14
I1164
sS'contours'
p15
(tsS'components'
p16
(tsS'anchors'
p17
(tsssS'org.robofab.postScriptHintData'
p18
(dp19
s."
LayerCount: 2
Fore
SplineSet
397 320 m 257
 333 199 319 186 255 65 c 257
 191 185 181 200 119 320 c 257
 183 441 194 454 259 574 c 257
 320 453 335 440 397 320 c 257
232 659 m 257
 44 319 l 257
 228 -19 l 257
 283 -19 l 257
 472 320 l 257
 287 659 l 257
 232 659 l 257
EndSplineSet
EndChar

StartChar: m
Encoding: 109 109 272
Width: 809
VWidth: 0
GlyphClass: 2
Flags: HW
PickledData: "(dp1
S'org.pippin.gimp.org.kernagic'
p2
(dp3
S'lstem'
p4
I0
sS'rstem'
p5
I0
ssS'com.typemytype.robofont.layerData'
p6
(dp7
sS'com.fontlab.hintData'
p8
(dp9
S'vhints'
p10
((dp11
S'position'
p12
I193
sS'width'
p13
I122
s(dp14
g12
I193
sg13
I98
s(dp15
g12
I845
sg13
I122
s(dp16
g12
I1483
sg13
I122
stp17
sS'hhints'
p18
((dp19
g12
I982
sg13
I92
stp20
ssS'org.robofab.postScriptHintData'
p21
(dp22
s."
HStem: 421 40
VStem: 83 53 83 42 363 53 636 53
AnchorPoint: "top" 444 464 basechar 0
LayerCount: 2
Fore
SplineSet
60 0 m 257
 191 0 l 257
 191 270 l 257
 195 348 228 386 275 386 c 256
 321 386 342 356 342 265 c 258
 342 0 l 257
 473 0 l 257
 473 283 l 257
 476 344 517 386 558 386 c 256
 608 386 624 346 624 270 c 258
 624 0 l 257
 756 0 l 257
 756 292 l 258
 756 405 702 474 601 474 c 260
 526 474 482 433 457 380 c 257
 431.860910575 448.378323236 382.184570312 474.018554688 315.596679688 474.018554688 c 0
 252.7734375 474.018554688 204.686120717 434.359686263 180 384 c 257
 172 464 l 257
 60 464 l 257
 60 0 l 257
EndSplineSet
EndChar

StartChar: macron
Encoding: 175 175 273
Width: 458
VWidth: 0
GlyphClass: 4
Flags: HW
PickledData: "(dp1
S'org.robofab.postScriptHintData'
p2
(dp3
sS'com.typemytype.robofont.layerData'
p4
(dp5
s."
AnchorPoint: "top" 229 461 mark 0
LayerCount: 2
Fore
SplineSet
82 551 m 257
 371 551 l 257
 371 609 l 257
 82 609 l 257
 82 551 l 257
EndSplineSet
EndChar

StartChar: minus
Encoding: 8722 8722 275
Width: 515
VWidth: 0
GlyphClass: 2
Flags: HW
PickledData: "(dp1
S'org.pippin.gimp.org.kernagic'
p2
(dp3
S'lstem'
p4
I0
sS'rstem'
p5
I0
ssS'com.typemytype.robofont.layerData'
p6
(dp7
sS'org.robofab.postScriptHintData'
p8
(dp9
s."
LayerCount: 2
Fore
SplineSet
41 285 m 257
 41 204 l 257
 479 204 l 257
 479 285 l 257
 41 285 l 257
EndSplineSet
EndChar

StartChar: multiply
Encoding: 215 215 276
Width: 425
VWidth: 0
GlyphClass: 2
Flags: HW
PickledData: "(dp1
S'org.pippin.gimp.org.kernagic'
p2
(dp3
S'lstem'
p4
I0
sS'rstem'
p5
I0
ssS'com.typemytype.robofont.layerData'
p6
(dp7
sS'org.robofab.postScriptHintData'
p8
(dp9
s."
LayerCount: 2
Fore
SplineSet
42 362 m 257
 157 239 l 257
 41 117 l 257
 97 56 l 257
 215 179 l 257
 331 57 l 257
 387 118 l 257
 387 118 297 213 272 239 c 257
 386 362 l 257
 330 421 l 257
 215 299 l 257
 97 421 l 257
 42 362 l 257
EndSplineSet
EndChar

StartChar: n
Encoding: 110 110 277
Width: 534
VWidth: 0
GlyphClass: 2
Flags: HW
PickledData: "(dp1
S'org.pippin.gimp.org.kernagic'
p2
(dp3
S'lstem'
p4
I0
sS'rstem'
p5
I0
ssS'com.typemytype.robofont.layerData'
p6
(dp7
sS'com.fontlab.hintData'
p8
(dp9
S'vhints'
p10
((dp11
S'position'
p12
I193
sS'width'
p13
I122
s(dp14
g12
I903
sg13
I122
stp15
sS'hhints'
p16
((dp17
g12
I0
sg13
I22
s(dp18
g12
I982
sg13
I92
s(dp19
g12
I1034
sg13
I21
stp20
ssS'org.robofab.postScriptHintData'
p21
(dp22
s."
HStem: 0 10 421 40 443 9
VStem: 83 53 387 53
AnchorPoint: "top" 300 464 basechar 0
AnchorPoint: "bot" 274 0 basechar 0
LayerCount: 2
Fore
SplineSet
61 0 m 257
 192 0 l 257
 192 265 l 258
 192 344 225 386 282 386 c 256
 330 386 349 355 349 274 c 258
 349 0 l 257
 480 0 l 257
 480 285 l 258
 480 403 429 474 325 474 c 260
 246 474 205 431 182 384 c 257
 173 464 l 257
 61 464 l 257
 61 0 l 257
EndSplineSet
EndChar

StartChar: nine
Encoding: 57 57 282
Width: 575
VWidth: 0
GlyphClass: 2
Flags: HW
PickledData: "(dp1
S'org.pippin.gimp.org.kernagic'
p2
(dp3
S'lstem'
p4
I0
sS'rstem'
p5
I0
ssS'com.typemytype.robofont.layerData'
p6
(dp7
sS'org.robofab.postScriptHintData'
p8
(dp9
s."
LayerCount: 2
Fore
SplineSet
393 433 m 256
 393 357 356 317 294 317 c 256
 233 317 199 366 199 433 c 256
 199 497 236 543 297 543 c 256
 358 543 393 496 393 433 c 256
143 0 m 257
 284 0 l 257
 450 229 l 257
 496 291 526 349 526 429 c 256
 526 546 443 636 297 636 c 256
 156 636 67 554 67 437 c 256
 67 307 163 240 254 240 c 256
 282 240 311 248 333 259 c 257
 267 179 206 95 143 12 c 257
 143 0 l 257
EndSplineSet
EndChar

StartChar: notequal
Encoding: 8800 8800 283
Width: 496
VWidth: 0
GlyphClass: 2
Flags: HW
PickledData: "(dp1
S'org.pippin.gimp.org.kernagic'
p2
(dp3
S'lstem'
p4
I0
sS'rstem'
p5
I0
ssS'com.typemytype.robofont.layerData'
p6
(dp7
S'b'
(dp8
S'name'
p9
S'notequal'
p10
sS'lib'
p11
(dp12
sS'unicodes'
p13
(tsS'width'
p14
I1079
sS'contours'
p15
(tsS'components'
p16
(tsS'anchors'
p17
(tsssS'org.robofab.postScriptHintData'
p18
(dp19
s."
LayerCount: 2
Fore
SplineSet
157 18 m 257
 216 140 l 257
 454 140 l 257
 449 213 l 257
 249 213 l 257
 300 315 l 257
 454 315 l 257
 448 393 l 257
 335 393 l 257
 384 498 l 257
 313 508 l 257
 256 393 l 257
 25 393 l 257
 31 315 l 257
 223 315 l 257
 173 214 l 257
 26 214 l 257
 31 140 l 257
 139 140 l 257
 89 30 l 257
 157 18 l 257
EndSplineSet
EndChar

StartChar: numbersign
Encoding: 35 35 285
Width: 482
VWidth: 0
GlyphClass: 2
Flags: HW
PickledData: "(dp1
S'org.pippin.gimp.org.kernagic'
p2
(dp3
S'lstem'
p4
I0
sS'rstem'
p5
I0
ssS'com.typemytype.robofont.layerData'
p6
(dp7
sS'org.robofab.postScriptHintData'
p8
(dp9
s."
LayerCount: 2
Fore
SplineSet
179 241 m 257
 210 411 l 257
 313 411 l 257
 282 241 l 257
 179 241 l 257
68 -2 m 257
 133 -2 l 257
 169 189 l 257
 272 189 l 257
 237 -2 l 257
 304 -2 l 257
 340 189 l 257
 417 189 l 257
 423 241 l 257
 349 241 l 257
 380 411 l 257
 452 411 l 257
 460 464 l 257
 389 464 l 257
 422 639 l 257
 355 639 l 257
 322 464 l 257
 220 464 l 257
 252 639 l 257
 185 639 l 257
 153 464 l 257
 68 464 l 257
 61 411 l 257
 143 411 l 257
 112 241 l 257
 35 241 l 257
 27 189 l 257
 103 189 l 257
 68 -2 l 257
EndSplineSet
EndChar

StartChar: o
Encoding: 111 111 286
Width: 530
VWidth: 0
GlyphClass: 2
Flags: HW
PickledData: "(dp1
S'org.pippin.gimp.org.kernagic'
p2
(dp3
S'lstem'
p4
I0
sS'rstem'
p5
I0
ssS'com.fontlab.hintData'
p6
(dp7
S'vhints'
p8
((dp9
S'position'
p10
I128
sS'width'
p11
I120
s(dp12
g10
I982
sg11
I120
stp13
sS'hhints'
p14
((dp15
g10
I-19
sg11
I92
s(dp16
g10
I982
sg11
I92
stp17
ssS'com.typemytype.robofont.guides'
p18
((dp19
S'y'
I1093
sS'x'
I582
sS'magnetic'
p20
I5
sS'angle'
p21
F90
sS'isGlobal'
p22
I00
stp23
sS'com.typemytype.robofont.layerData'
p24
(dp25
sS'org.robofab.postScriptHintData'
p26
(dp27
s."
HStem: -8 40 421 40
VStem: 54 52 421 52
AnchorPoint: "top" 266 464 basechar 0
LayerCount: 2
Fore
SplineSet
266 -10 m 256
 408 -10 493 90 493 234 c 256
 493 377 408 474 266 474 c 260
 124 474 38 377 38 234 c 256
 38 90 123 -10 266 -10 c 256
266 77 m 256
 203 77 170 130 170 234 c 256
 170 337 203 386 266 386 c 256
 329 386 362 337 362 234 c 256
 362 131 328 77 266 77 c 256
EndSplineSet
Substitution2: "Single Substitution lookup 4 subtable" ordmasculine
EndChar

StartChar: oe
Encoding: 339 339 291
Width: 798
VWidth: 0
GlyphClass: 2
Flags: HW
PickledData: "(dp1
S'org.pippin.gimp.org.kernagic'
p2
(dp3
S'lstem'
p4
I0
sS'rstem'
p5
I0
ssS'com.typemytype.robofont.layerData'
p6
(dp7
S'b'
(dp8
S'name'
p9
S'oe'
p10
sS'lib'
p11
(dp12
sS'unicodes'
p13
(tsS'width'
p14
F1915.3599999999999
sS'contours'
p15
(tsS'components'
p16
(tsS'anchors'
p17
(tsssS'org.robofab.postScriptHintData'
p18
(dp19
s."
LayerCount: 2
Fore
SplineSet
465 265 m 257
 470 354 521 392 575 392 c 256
 629 392 659 356 663 265 c 257
 465 265 l 257
248 76 m 256
 174 76 139 131 139 234 c 256
 139 335 174 388 248 388 c 256
 322 388 356 335 356 234 c 256
 356 131 321 76 248 76 c 256
757 248 m 256
 755 381 693 471 570 471 c 256
 506 471 442 431 411 382 c 257
 382 431 318 471 248 471 c 256
 115 471 32 378 32 233 c 256
 32 88 115 -7 248 -7 c 256
 317 -7 379 32 410 80 c 257
 446 29 515 -7 590 -7 c 256
 663 -7 723 18 750 44 c 257
 722 114 l 257
 716 114 l 257
 696 95 648 76 598 76 c 256
 540 76 475 100 464 196 c 257
 753 196 l 257
 753 196 757 217 757 248 c 256
EndSplineSet
EndChar

StartChar: ogonek
Encoding: 731 731 292
Width: 328
VWidth: 0
GlyphClass: 4
Flags: HW
PickledData: "(dp1
S'org.pippin.gimp.org.kernagic'
p2
(dp3
S'lstem'
p4
I0
sS'rstem'
p5
I0
ssS'com.typemytype.robofont.layerData'
p6
(dp7
sS'org.robofab.postScriptHintData'
p8
(dp9
s."
LayerCount: 2
Fore
SplineSet
192 -189 m 256
 218 -189 246 -183 270 -173 c 257
 267 -110 l 257
 261 -114 236 -125 212 -125 c 256
 194 -125 181 -109 181 -91 c 256
 181 -64 202 -23 234 2 c 257
 186 2 l 257
 150 -16 104 -56 104 -112 c 256
 104 -163 143 -189 192 -189 c 256
EndSplineSet
EndChar

StartChar: one
Encoding: 49 49 296
Width: 575
VWidth: 0
GlyphClass: 2
Flags: HW
PickledData: "(dp1
S'org.pippin.gimp.org.kernagic'
p2
(dp3
S'lstem'
p4
I0
sS'rstem'
p5
I0
ssS'com.typemytype.robofont.layerData'
p6
(dp7
sS'org.robofab.postScriptHintData'
p8
(dp9
s."
LayerCount: 2
Fore
SplineSet
83 0 m 257
 528 0 l 257
 528 92 l 257
 385 92 l 257
 385 626 l 261
 264 626 l 261
 224 595 138 563 85 549 c 261
 85 459 l 261
 127 464 198 487 245 509 c 261
 245 92 l 257
 83 92 l 257
 83 0 l 257
EndSplineSet
EndChar

StartChar: onehalf
Encoding: 189 189 297
Width: 816
VWidth: 0
GlyphClass: 3
Flags: HW
PickledData: "(dp1
S'org.pippin.gimp.org.kernagic'
p2
(dp3
S'lstem'
p4
I0
sS'rstem'
p5
I0
ssS'com.typemytype.robofont.layerData'
p6
(dp7
sS'org.robofab.postScriptHintData'
p8
(dp9
s."
LayerCount: 2
Fore
SplineSet
169 0 m 257
 249 0 l 257
 663 643 l 257
 582 643 l 257
 169 0 l 257
65 256 m 257
 273 256 l 257
 273 314 l 257
 212 314 l 257
 212 643 l 257
 150 643 l 257
 137 634 81 604 61 594 c 257
 61 536 l 257
 65 536 115 559 131 568 c 257
 131 314 l 257
 65 314 l 257
 65 256 l 257
533 0 m 257
 768 0 l 257
 770 61 l 257
 620 61 l 257
 698 131 l 258
 752 178 774 219 774 261 c 256
 774 322 734 378 641 378 c 256
 580 378 530 344 504 307 c 257
 546 263 l 257
 569 293 605 311 639 311 c 256
 669 311 694 294 694 262 c 256
 694 238 681 214 649 183 c 258
 523 59 l 257
 533 0 l 257
EndSplineSet
Ligature2: "fracDiagonalFractionslookup11 subtable" one slash two
EndChar

StartChar: onequarter
Encoding: 188 188 298
Width: 704
VWidth: 0
GlyphClass: 3
Flags: HW
PickledData: "(dp1
S'org.pippin.gimp.org.kernagic'
p2
(dp3
S'lstem'
p4
I0
sS'rstem'
p5
I0
ssS'com.typemytype.robofont.layerData'
p6
(dp7
sS'org.robofab.postScriptHintData'
p8
(dp9
s."
LayerCount: 2
Fore
SplineSet
500 136 m 257
 586 281 l 257
 586 136 l 257
 500 136 l 257
137 0 m 257
 223 0 l 257
 640 643 l 257
 556 643 l 257
 137 0 l 257
586 0 m 257
 654 0 l 257
 654 77 l 257
 698 77 l 257
 702 136 l 257
 654 136 l 257
 654 373 l 257
 581 373 l 257
 424 137 l 257
 424 77 l 257
 586 77 l 257
 586 0 l 257
52 256 m 257
 251 256 l 257
 251 324 l 257
 193 324 l 257
 193 643 l 257
 131 643 l 257
 118 634 64 604 45 594 c 257
 45 528 l 257
 49 528 102 551 118 559 c 257
 118 324 l 257
 52 324 l 257
 52 256 l 257
EndSplineSet
Ligature2: "fracDiagonalFractionslookup11 subtable" one slash four
EndChar

StartChar: ordmasculine
Encoding: 186 186 300
Width: 413
VWidth: 0
GlyphClass: 2
Flags: HW
PickledData: "(dp1
S'org.pippin.gimp.org.kernagic'
p2
(dp3
S'lstem'
p4
I0
sS'rstem'
p5
I0
ssS'com.typemytype.robofont.layerData'
p6
(dp7
S'b'
(dp8
S'name'
p9
S'ordmasculine'
p10
sS'lib'
p11
(dp12
sS'unicodes'
p13
(tsS'width'
p14
I965
sS'contours'
p15
(tsS'components'
p16
(tsS'anchors'
p17
(tsssS'org.robofab.postScriptHintData'
p18
(dp19
s."
LayerCount: 2
Fore
SplineSet
282 480 m 256
 282 411 257 377 205 377 c 256
 157 377 133 411 133 481 c 256
 133 552 158 587 205 587 c 256
 254 587 282 551 282 480 c 256
50 481 m 256
 50 383 104 307 205 307 c 256
 301 307 362 384 362 481 c 256
 362 581 309 658 205 658 c 256
 104 658 50 579 50 481 c 256
EndSplineSet
EndChar

StartChar: oslash
Encoding: 248 248 301
Width: 530
VWidth: 0
GlyphClass: 2
Flags: HW
PickledData: "(dp1
S'org.pippin.gimp.org.kernagic'
p2
(dp3
S'lstem'
p4
I0
sS'rstem'
p5
I0
ssS'com.typemytype.robofont.layerData'
p6
(dp7
sS'org.robofab.postScriptHintData'
p8
(dp9
s."
LayerCount: 2
Fore
SplineSet
94 -54 m 257
 126 -74 l 257
 443 517 l 257
 408 538 l 257
 94 -54 l 257
EndSplineSet
Refer: 286 111 N 1 0 0 1 0 0 2
EndChar

StartChar: p
Encoding: 112 112 304
Width: 537
VWidth: 0
GlyphClass: 2
Flags: HW
PickledData: "(dp1
S'org.pippin.gimp.org.kernagic'
p2
(dp3
S'lstem'
p4
I0
sS'rstem'
p5
I0
ssS'com.typemytype.robofont.layerData'
p6
(dp7
sS'com.fontlab.hintData'
p8
(dp9
S'vhints'
p10
((dp11
S'position'
p12
I193
sS'width'
p13
I122
s(dp14
g12
I193
sg13
I97
s(dp15
g12
I1009
sg13
I122
stp16
sS'hhints'
p17
((dp18
g12
I-19
sg13
I92
s(dp19
g12
I982
sg13
I92
stp20
ssS'org.robofab.postScriptHintData'
p21
(dp22
s."
HStem: -8 40 421 40
VStem: 83 53 83 41 433 53
AnchorPoint: "top" 284 464 basechar 0
LayerCount: 2
Fore
SplineSet
277 77 m 256
 237 77 208 94 190 119 c 257
 190 299 l 257
 200 352 230 386 284 386 c 256
 337 386 366 344 366 234 c 256
 366 114 329 77 277 77 c 256
61 -202 m 257
 190 -202 l 257
 190 -25 l 257
 188 43 l 257
 212 15 250 -10 307 -10 c 256
 433 -10 498 92 498 234 c 256
 498 372 439 474 314 474 c 260
 242 474 201 434 181 381 c 257
 176 464 l 257
 61 464 l 257
 61 -202 l 257
EndSplineSet
EndChar

StartChar: paragraph
Encoding: 182 182 305
Width: 520
VWidth: 0
GlyphClass: 2
Flags: HW
PickledData: "(dp1
S'org.pippin.gimp.org.kernagic'
p2
(dp3
S'lstem'
p4
I0
sS'rstem'
p5
I0
ssS'com.typemytype.robofont.layerData'
p6
(dp7
sS'org.robofab.postScriptHintData'
p8
(dp9
s."
LayerCount: 2
Fore
SplineSet
292 563 m 257
 369 563 l 257
 369 -103 l 257
 439 -103 l 257
 439 624 l 257
 270 624 l 258
 103 624 47 563 47 459 c 256
 47 377 100 303 222 303 c 257
 222 -103 l 257
 292 -103 l 257
 292 563 l 257
EndSplineSet
EndChar

StartChar: parenright
Encoding: 41 41 307
Width: 362
VWidth: 0
GlyphClass: 2
Flags: HW
PickledData: "(dp1
S'org.pippin.gimp.org.kernagic'
p2
(dp3
S'lstem'
p4
I0
sS'rstem'
p5
I0
ssS'com.typemytype.robofont.layerData'
p6
(dp7
S'b'
(dp8
S'name'
p9
S'parenright'
p10
sS'lib'
p11
(dp12
sS'unicodes'
p13
(tsS'width'
p14
I766
sS'contours'
p15
(tsS'components'
p16
(tsS'anchors'
p17
(tsssS'org.robofab.postScriptHintData'
p18
(dp19
s."
LayerCount: 2
Fore
SplineSet
274 282 m 256
 274 433 222 595 156 683 c 257
 62 683 l 257
 62 667 l 257
 124 588 177 472 177 282 c 256
 177 93 124 -27 62 -106 c 257
 62 -119 l 257
 156 -119 l 257
 222 -31 274 131 274 282 c 256
EndSplineSet
EndChar

StartChar: partialdiff
Encoding: 8706 8706 308
Width: 567
VWidth: 0
GlyphClass: 2
Flags: HW
PickledData: "(dp1
S'org.robofab.postScriptHintData'
p2
(dp3
s."
LayerCount: 2
Fore
SplineSet
234 53 m 256
 209 53 197 78 197 115 c 256
 197 198 261 337 383 354 c 257
 373 233 325 53 234 53 c 256
228 -9 m 256
 389 -9 491 169 491 396 c 256
 491 563 385 669 255 669 c 256
 209 669 160 656 112 628 c 257
 135 569 l 257
 169 588 203 598 235 598 c 256
 320 598 385 532 385 421 c 258
 385 409 l 257
 189 400 82 250 82 132 c 256
 82 55 128 -9 228 -9 c 256
EndSplineSet
EndChar

StartChar: percent
Encoding: 37 37 309
Width: 877
VWidth: 0
GlyphClass: 2
Flags: HW
PickledData: "(dp1
S'org.pippin.gimp.org.kernagic'
p2
(dp3
S'lstem'
p4
I0
sS'rstem'
p5
I0
ssS'com.typemytype.robofont.layerData'
p6
(dp7
S'b'
(dp8
S'name'
p9
S'percent'
p10
sS'lib'
p11
(dp12
sS'unicodes'
p13
(tsS'width'
p14
I1563
sS'contours'
p15
(tsS'components'
p16
(tsS'anchors'
p17
(tsssS'org.robofab.postScriptHintData'
p18
(dp19
s."
LayerCount: 2
Fore
SplineSet
668 -12 m 256
 772 -12 836 65 836 163 c 256
 836 262 773 335 668 335 c 256
 565 335 502 260 502 163 c 256
 502 65 564 -12 668 -12 c 256
670 60 m 256
 616 60 587 105 587 164 c 256
 587 221 616 266 670 266 c 256
 724 266 752 224 752 164 c 256
 752 107 724 60 670 60 c 256
210 0 m 257
 302 0 l 257
 662 646 l 257
 573 646 l 257
 210 0 l 257
205 308 m 256
 309 308 372 385 372 482 c 256
 372 581 310 655 205 655 c 256
 102 655 43 579 43 482 c 256
 43 385 101 308 205 308 c 256
206 379 m 256
 152 379 124 425 124 484 c 256
 124 541 152 586 206 586 c 256
 260 586 288 544 288 484 c 256
 288 426 260 379 206 379 c 256
EndSplineSet
EndChar

StartChar: period
Encoding: 46 46 310
Width: 301
VWidth: 0
GlyphClass: 2
Flags: HW
PickledData: "(dp1
S'org.pippin.gimp.org.kernagic'
p2
(dp3
S'lstem'
p4
I0
sS'rstem'
p5
I0
ssS'com.typemytype.robofont.layerData'
p6
(dp7
S'b'
(dp8
S'name'
p9
S'period'
p10
sS'lib'
p11
(dp12
sS'unicodes'
p13
(tsS'width'
p14
I624
sS'contours'
p15
(tsS'components'
p16
(tsS'anchors'
p17
(tsssS'org.robofab.postScriptHintData'
p18
(dp19
s."
LayerCount: 2
Fore
SplineSet
149 -4 m 256
 187 -4 214 18 214 61 c 256
 214 105 187 126 149 126 c 256
 111 126 84 105 84 61 c 256
 84 18 112 -4 149 -4 c 256
EndSplineSet
EndChar

StartChar: periodcentered
Encoding: 183 183 311
Width: 261
VWidth: 0
GlyphClass: 2
Flags: HW
PickledData: "(dp1
S'org.pippin.gimp.org.kernagic'
p2
(dp3
S'lstem'
p4
I0
sS'rstem'
p5
I0
ssS'com.typemytype.robofont.layerData'
p6
(dp7
S'b'
(dp8
S'name'
p9
S'periodcentered'
p10
sS'lib'
p11
(dp12
sS'unicodes'
p13
(tsS'width'
p14
I653
sS'contours'
p15
(tsS'components'
p16
(tsS'anchors'
p17
(tsssS'org.robofab.postScriptHintData'
p18
(dp19
s."
LayerCount: 2
Fore
SplineSet
191 199 m 256
 231 199 256 227 256 269 c 256
 256 309 231 335 191 335 c 256
 151 335 124 309 124 269 c 256
 124 227 151 199 191 199 c 256
EndSplineSet
EndChar

StartChar: perthousand
Encoding: 8240 8240 312
Width: 1266
VWidth: 0
GlyphClass: 2
Flags: HW
PickledData: "(dp1
S'org.pippin.gimp.org.kernagic'
p2
(dp3
S'lstem'
p4
I0
sS'rstem'
p5
I0
ssS'com.typemytype.robofont.layerData'
p6
(dp7
S'b'
(dp8
S'name'
p9
S'perthousand'
p10
sS'lib'
p11
(dp12
sS'unicodes'
p13
(tsS'width'
p14
I2251
sS'contours'
p15
(tsS'components'
p16
(tsS'anchors'
p17
(tsssS'org.robofab.postScriptHintData'
p18
(dp19
s."
LayerCount: 2
Fore
SplineSet
1059 -12 m 256
 1163 -12 1226 65 1226 163 c 256
 1226 262 1164 335 1059 335 c 256
 955 335 893 260 893 163 c 256
 893 65 954 -12 1059 -12 c 256
1061 60 m 256
 1007 60 977 105 977 164 c 256
 977 221 1007 266 1061 266 c 256
 1115 266 1141 224 1141 164 c 256
 1141 107 1115 60 1061 60 c 256
EndSplineSet
Refer: 309 37 N 1 0 0 1 17 0 2
EndChar

StartChar: pi
Encoding: 960 960 313
Width: 633
VWidth: 0
GlyphClass: 2
Flags: HW
PickledData: "(dp1
S'org.robofab.postScriptHintData'
p2
(dp3
sS'com.typemytype.robofont.layerData'
p4
(dp5
s."
LayerCount: 2
Fore
SplineSet
492 -5 m 256
 525 -5 552 4 567 18 c 257
 567 74 l 257
 555 70 543 68 525 68 c 256
 500 68 479 72 479 102 c 256
 479 148 481 281 487 369 c 257
 588 369 l 257
 588 464 l 257
 207 464 l 258
 105 464 74 405 74 313 c 257
 115 313 l 257
 120 345 137 369 171 369 c 257
 207 369 l 257
 180 166 l 257
 168 74 110 47 79 47 c 257
 79 2 l 257
 227 2 258 46 262 139 c 258
 273 369 l 257
 417 369 l 257
 400 283 387 146 387 90 c 256
 387 14 433 -5 492 -5 c 256
EndSplineSet
EndChar

StartChar: plus
Encoding: 43 43 314
Width: 503
VWidth: 0
GlyphClass: 2
Flags: HW
PickledData: "(dp1
S'org.pippin.gimp.org.kernagic'
p2
(dp3
S'lstem'
p4
I0
sS'rstem'
p5
I0
ssS'com.typemytype.robofont.layerData'
p6
(dp7
S'b'
(dp8
S'name'
p9
S'plus'
p10
sS'lib'
p11
(dp12
sS'unicodes'
p13
(tsS'width'
p14
I1136
sS'contours'
p15
(tsS'components'
p16
(tsS'anchors'
p17
(tsssS'org.robofab.postScriptHintData'
p18
(dp19
s."
LayerCount: 2
Fore
SplineSet
202 519 m 257
 202 359 l 257
 46 359 l 257
 46 263 l 257
 202 263 l 257
 202 100 l 257
 299 100 l 257
 299 263 l 257
 456 263 l 257
 456 359 l 257
 299 359 l 257
 299 519 l 257
 202 519 l 257
EndSplineSet
EndChar

StartChar: plusminus
Encoding: 177 177 315
Width: 486
VWidth: 0
GlyphClass: 2
Flags: HW
PickledData: "(dp1
S'org.pippin.gimp.org.kernagic'
p2
(dp3
S'lstem'
p4
I0
sS'rstem'
p5
I0
ssS'com.typemytype.robofont.layerData'
p6
(dp7
sS'org.robofab.postScriptHintData'
p8
(dp9
s."
LayerCount: 2
Fore
SplineSet
45 76 m 257
 45 0 l 257
 446 0 l 257
 446 76 l 257
 45 76 l 257
201 514 m 257
 201 362 l 257
 47 362 l 257
 47 276 l 257
 201 276 l 257
 201 126 l 257
 289 126 l 257
 289 276 l 257
 443 276 l 257
 443 362 l 257
 289 362 l 257
 289 514 l 257
 201 514 l 257
EndSplineSet
EndChar

StartChar: product
Encoding: 8719 8719 316
Width: 674
VWidth: 0
GlyphClass: 2
Flags: HW
PickledData: "(dp1
S'org.pippin.gimp.org.kernagic'
p2
(dp3
S'lstem'
p4
I0
sS'rstem'
p5
I0
ssS'com.typemytype.robofont.layerData'
p6
(dp7
S'b'
(dp8
S'name'
p9
S'product'
p10
sS'lib'
p11
(dp12
sS'unicodes'
p13
(tsS'width'
p14
I1533
sS'contours'
p15
(tsS'components'
p16
(tsS'anchors'
p17
(tsssS'org.robofab.postScriptHintData'
p18
(dp19
s."
LayerCount: 2
Fore
SplineSet
88 655 m 257
 88 0 l 257
 164 0 l 257
 164 586 l 257
 513 586 l 257
 513 0 l 257
 589 0 l 257
 589 655 l 257
 88 655 l 257
EndSplineSet
EndChar

StartChar: q
Encoding: 113 113 317
Width: 532
VWidth: 0
GlyphClass: 2
Flags: HW
PickledData: "(dp1
S'org.pippin.gimp.org.kernagic'
p2
(dp3
S'lstem'
p4
I0
sS'rstem'
p5
I0
ssS'com.typemytype.robofont.layerData'
p6
(dp7
sS'org.robofab.postScriptHintData'
p8
(dp9
s."
LayerCount: 2
Fore
SplineSet
262 77 m 256
 209 77 170 114 170 235 c 256
 170 347 205 386 257 386 c 256
 296 386 330 370 348 339 c 257
 348 117 l 257
 330 94 302 77 262 77 c 256
347 -202 m 257
 476 -202 l 257
 476 464 l 257
 361 464 l 257
 357 398 l 257
 335 440 295 474 229 474 c 260
 104 474 39 372 39 235 c 256
 39 91.3252262049 103.196289062 -10 232 -10 c 256
 284 -10 324 13 349 43 c 257
 347 -18 l 257
 347 -202 l 257
EndSplineSet
EndChar

StartChar: question
Encoding: 63 63 318
Width: 440
VWidth: 0
GlyphClass: 2
Flags: HW
PickledData: "(dp1
S'org.pippin.gimp.org.kernagic'
p2
(dp3
S'lstem'
p4
I0
sS'rstem'
p5
I0
ssS'com.typemytype.robofont.layerData'
p6
(dp7
sS'org.robofab.postScriptHintData'
p8
(dp9
s."
LayerCount: 2
Fore
SplineSet
157 -8 m 256
 197 -8 220 18 220 55 c 256
 220 92 197 119 157 119 c 256
 117 119 93 92 93 55 c 256
 93 18 117 -8 157 -8 c 256
140 207 m 257
 173 198 l 257
 246 336 378 353 378 508 c 256
 378 605 296 657 206 657 c 256
 154 657 89 639 49 601 c 257
 80 511 l 257
 109 528 149 543 185 543 c 256
 235 543 256 515 256 473 c 256
 256 404 180 356 140 207 c 257
EndSplineSet
EndChar

StartChar: quotedbl
Encoding: 34 34 320
Width: 350
VWidth: 0
GlyphClass: 2
Flags: HW
PickledData: "(dp1
S'org.robofab.postScriptHintData'
p2
(dp3
sS'com.typemytype.robofont.layerData'
p4
(dp5
s."
LayerCount: 2
Fore
SplineSet
236 401 m 257
 295 401 l 257
 314 664 l 257
 199 664 l 257
 236 401 l 257
76 401 m 257
 135 401 l 257
 155 664 l 257
 40 664 l 257
 76 401 l 257
EndSplineSet
EndChar

StartChar: quotedblbase
Encoding: 8222 8222 321
Width: 387
VWidth: 0
GlyphClass: 2
Flags: HW
PickledData: "(dp1
S'org.robofab.postScriptHintData'
p2
(dp3
s."
LayerCount: 2
Fore
SplineSet
209 -155 m 257
 288 -155 l 257
 339 63 l 257
 227 63 l 257
 209 -155 l 257
46 -155 m 257
 124 -155 l 257
 175 63 l 257
 63 63 l 257
 46 -155 l 257
EndSplineSet
EndChar

StartChar: quotedblleft
Encoding: 8220 8220 322
Width: 408
VWidth: 0
GlyphClass: 2
Flags: HW
PickledData: "(dp1
S'org.robofab.postScriptHintData'
p2
(dp3
sS'com.typemytype.robofont.layerData'
p4
(dp5
s."
LayerCount: 2
Fore
SplineSet
228 441 m 257
 342 441 l 257
 359 659 l 257
 279 659 l 257
 228 441 l 257
54 441 m 257
 169 441 l 257
 186 659 l 257
 106 659 l 257
 54 441 l 257
EndSplineSet
EndChar

StartChar: quotedblright
Encoding: 8221 8221 323
Width: 408
VWidth: 0
GlyphClass: 2
Flags: HW
PickledData: "(dp1
S'org.robofab.postScriptHintData'
p2
(dp3
sS'com.typemytype.robofont.layerData'
p4
(dp5
s."
LayerCount: 2
Fore
SplineSet
54 441 m 257
 135 441 l 257
 186 659 l 257
 72 659 l 257
 54 441 l 257
228 441 m 257
 308 441 l 257
 359 659 l 257
 245 659 l 257
 228 441 l 257
EndSplineSet
EndChar

StartChar: quoteleft
Encoding: 8216 8216 324
Width: 226
VWidth: 0
GlyphClass: 2
Flags: HW
PickledData: "(dp1
S'org.robofab.postScriptHintData'
p2
(dp3
sS'com.typemytype.robofont.layerData'
p4
(dp5
s."
LayerCount: 2
Fore
SplineSet
186 659 m 257
 106 659 l 257
 54 441 l 257
 169 441 l 257
 186 659 l 257
EndSplineSet
EndChar

StartChar: quoteright
Encoding: 8217 8217 325
Width: 226
VWidth: 0
GlyphClass: 2
Flags: HW
PickledData: "(dp1
S'org.robofab.postScriptHintData'
p2
(dp3
sS'com.typemytype.robofont.layerData'
p4
(dp5
s."
LayerCount: 2
Fore
SplineSet
54 441 m 257
 135 441 l 257
 186 659 l 257
 72 659 l 257
 54 441 l 257
EndSplineSet
EndChar

StartChar: quotesinglbase
Encoding: 8218 8218 326
Width: 215
VWidth: 0
GlyphClass: 2
Flags: HW
PickledData: "(dp1
S'org.robofab.postScriptHintData'
p2
(dp3
s."
LayerCount: 2
Fore
SplineSet
44 -155 m 257
 123 -155 l 257
 175 63 l 257
 61 63 l 257
 44 -155 l 257
EndSplineSet
EndChar

StartChar: quotesingle
Encoding: 39 39 327
Width: 243
VWidth: 0
GlyphClass: 2
Flags: HW
PickledData: "(dp1
S'org.robofab.postScriptHintData'
p2
(dp3
s."
LayerCount: 2
Fore
SplineSet
90 395 m 257
 151 395 l 257
 169 659 l 257
 55 659 l 257
 90 395 l 257
EndSplineSet
EndChar

StartChar: r
Encoding: 114 114 328
Width: 362
VWidth: 0
GlyphClass: 2
Flags: HW
PickledData: "(dp1
S'org.pippin.gimp.org.kernagic'
p2
(dp3
S'lstem'
p4
I0
sS'rstem'
p5
I352
ssS'com.typemytype.robofont.layerData'
p6
(dp7
sS'com.fontlab.hintData'
p8
(dp9
S'vhints'
p10
((dp11
S'position'
p12
I193
sS'width'
p13
I122
s(dp14
g12
I193
sg13
I92
stp15
sS'hhints'
p16
((dp17
g12
I974
sg13
I94
stp18
ssS'org.robofab.postScriptHintData'
p19
(dp20
s."
HStem: 418 40
VStem: 83 53 83 40
AnchorPoint: "top" 186 464 basechar 0
AnchorPoint: "bot" 132 0 basechar 0
LayerCount: 2
Fore
SplineSet
57 0 m 257
 189 0 l 257
 189 262 l 258
 189 328 240 369 307 369 c 256
 311 369 314 368 318 368 c 258
 341 366 l 257
 349 463 l 257
 330 467 310 467 298 467 c 256
 255 467 206 445 178 384 c 257
 170 464 l 257
 57 464 l 257
 57 0 l 257
EndSplineSet
EndChar

StartChar: radical
Encoding: 8730 8730 330
Width: 562
VWidth: 0
GlyphClass: 2
Flags: HW
PickledData: "(dp1
S'org.pippin.gimp.org.kernagic'
p2
(dp3
S'lstem'
p4
I0
sS'rstem'
p5
I0
ssS'com.typemytype.robofont.layerData'
p6
(dp7
S'b'
(dp8
S'name'
p9
S'radical'
p10
sS'lib'
p11
(dp12
sS'unicodes'
p13
(tsS'width'
p14
I1136
sS'contours'
p15
(tsS'components'
p16
(tsS'anchors'
p17
(tsssS'org.robofab.postScriptHintData'
p18
(dp19
s."
LayerCount: 2
Fore
SplineSet
443 692 m 257
 425 612 284 141 266 61 c 257
 229 178 188 291 148 405 c 257
 11 366 l 257
 22 313 l 257
 83 329 l 257
 229 -71 l 257
 337 -71 l 257
 549 692 l 257
 443 692 l 257
EndSplineSet
EndChar

StartChar: registered
Encoding: 174 174 333
Width: 808
VWidth: 0
GlyphClass: 2
Flags: HW
PickledData: "(dp1
S'org.pippin.gimp.org.kernagic'
p2
(dp3
S'lstem'
p4
I0
sS'rstem'
p5
I0
ssS'com.typemytype.robofont.layerData'
p6
(dp7
sS'org.robofab.postScriptHintData'
p8
(dp9
s."
LayerCount: 2
Fore
SplineSet
389 -19 m 256
 567 -19 720 117 720 313 c 256
 720 508 567 644 389 644 c 256
 211 644 57 508 57 313 c 256
 57 117 211 -19 389 -19 c 256
389 40 m 256
 246 40 124 152 124 313 c 256
 124 473 246 585 389 585 c 256
 532 585 654 473 654 313 c 256
 654 152 532 40 389 40 c 256
328 352 m 257
 328 458 l 257
 373 458 l 257
 377 458 l 258
 442 458 465 459 465 406 c 256
 465 363 441 352 380 352 c 258
 328 352 l 257
262 134 m 257
 328 134 l 257
 328 305 l 257
 378 305 l 257
 379 303 473 134 473 134 c 257
 551 134 l 257
 551 134 450 307 447 310 c 257
 509 325 532 354 532 408 c 256
 532 491 476 512 385 512 c 258
 262 512 l 257
 262 134 l 257
EndSplineSet
EndChar

StartChar: ring
Encoding: 730 730 334
Width: 336
VWidth: 0
GlyphClass: 4
Flags: HW
PickledData: "(dp1
S'org.robofab.postScriptHintData'
p2
(dp3
sS'com.typemytype.robofont.layerData'
p4
(dp5
s."
AnchorPoint: "top" 159 461 mark 0
LayerCount: 2
Fore
SplineSet
160 512 m 256
 217 512 254 554 254 602 c 256
 254 649 218 693 160 693 c 256
 103 693 68 650 68 602 c 256
 68 554 103 512 160 512 c 256
160 557 m 256
 134 557 121 577 121 602 c 256
 121 625 135 647 160 647 c 256
 185 647 201 625 201 602 c 256
 201 578 185 557 160 557 c 256
EndSplineSet
EndChar

StartChar: s
Encoding: 115 115 335
Width: 428
VWidth: 0
GlyphClass: 2
Flags: HW
PickledData: "(dp1
S'org.pippin.gimp.org.kernagic'
p2
(dp3
S'lstem'
p4
I168
sS'rstem'
p5
I620
ssS'com.fontlab.hintData'
p6
(dp7
S'vhints'
p8
((dp9
S'position'
p10
I142
sS'width'
p11
I107
s(dp12
g10
I738
sg11
I104
stp13
sS'hhints'
p14
((dp15
g10
I-19
sg11
I92
s(dp16
g10
I982
sg11
I92
stp17
ssS'com.typemytype.robofont.guides'
p18
((dp19
S'y'
I381
sS'x'
I77
sS'magnetic'
p20
I5
sS'angle'
p21
F90
sS'isGlobal'
p22
I00
stp23
sS'com.typemytype.robofont.layerData'
p24
(dp25
sS'org.robofab.postScriptHintData'
p26
(dp27
s."
HStem: -8 40 421 40
VStem: 61 46 316 45
AnchorPoint: "top" 211 464 basechar 0
AnchorPoint: "bot" 217 0 basechar 0
LayerCount: 2
Fore
SplineSet
282 129 m 256
 282 99 263 78 223 78 c 256
 186 78 138 88 99 135 c 257
 89 135 l 257
 27 77 l 257
 73 19 140 -10 228 -10 c 256
 321 -10 406 39 406 133 c 256
 406 188 394 230 291 270 c 257
 230 294 l 257
 187 311 179 324 179 342 c 256
 179 368 200 384 237 384 c 256
 272 384 309 371 333 341 c 257
 338 341 l 257
 398 394 l 257
 364 449 297 474 220 474 c 260
 111 474 43 422 43 339 c 256
 43 274 75 234 169 201 c 258
 218 184 l 258
 272 166 282 149 282 129 c 256
EndSplineSet
EndChar

StartChar: section
Encoding: 167 167 341
Width: 444
VWidth: 0
GlyphClass: 2
Flags: HW
PickledData: "(dp1
S'org.pippin.gimp.org.kernagic'
p2
(dp3
S'lstem'
p4
I0
sS'rstem'
p5
I0
ssS'com.typemytype.robofont.layerData'
p6
(dp7
S'b'
(dp8
S'name'
p9
S'section'
p10
sS'lib'
p11
(dp12
sS'unicodes'
p13
(tsS'width'
p14
I1079
sS'contours'
p15
(tsS'components'
p16
(tsS'anchors'
p17
(tsssS'org.robofab.postScriptHintData'
p18
(dp19
s."
LayerCount: 2
Fore
SplineSet
284 268 m 257
 280 270 256 280 236 286 c 257
 172 313 155 323 155 348 c 256
 155 366 166 381 178 387 c 256
 179 386 208 375 241 361 c 256
 285 343 299 324 299 304 c 256
 299 288 294 278 284 268 c 257
216 -9 m 256
 310 -9 380 32 380 143 c 256
 380 180 367 211 338 236 c 257
 364 260 384 289 384 334 c 256
 384 388 359 421 279 453 c 256
 181 493 173 504 173 529 c 256
 173 557 196 570 239 570 c 256
 278 570 320 558 347 543 c 257
 371 615 l 257
 328 642 274 655 229 655 c 256
 149 655 66 622 66 521 c 256
 66 477 86 445 126 416 c 257
 94 391 70 358 70 321 c 256
 70 265 106 236 182 205 c 256
 264 173 279 157 279 133 c 256
 279 95 255 77 213 77 c 256
 166 77 109 99 76 117 c 257
 76 27 l 257
 117 6 171 -9 216 -9 c 256
EndSplineSet
EndChar

StartChar: semicolon
Encoding: 59 59 342
Width: 320
VWidth: 0
GlyphClass: 2
Flags: HW
PickledData: "(dp1
S'org.pippin.gimp.org.kernagic'
p2
(dp3
S'lstem'
p4
I0
sS'rstem'
p5
I0
ssS'com.typemytype.robofont.layerData'
p6
(dp7
sS'org.robofab.postScriptHintData'
p8
(dp9
s."
LayerCount: 2
Fore
SplineSet
163 343 m 256
 203 343 231 367 231 407 c 256
 231 449 203 475 163 475 c 256
 124 475 95 449 95 407 c 256
 95 366 124 343 163 343 c 256
93 -144 m 257
 169 -144 l 257
 221 50 l 257
 221 115 l 257
 109 115 l 257
 109 96 93 -144 93 -144 c 257
EndSplineSet
EndChar

StartChar: seven
Encoding: 55 55 343
Width: 575
VWidth: 0
GlyphClass: 2
Flags: HW
PickledData: "(dp1
S'org.pippin.gimp.org.kernagic'
p2
(dp3
S'lstem'
p4
I0
sS'rstem'
p5
I0
ssS'com.typemytype.robofont.layerData'
p6
(dp7
sS'org.robofab.postScriptHintData'
p8
(dp9
s."
LayerCount: 2
Fore
SplineSet
140 0 m 257
 283 0 l 257
 500 530 l 261
 499 626 l 261
 77 626 l 261
 83 530 l 261
 357 530 l 261
 140 0 l 257
EndSplineSet
EndChar

StartChar: six
Encoding: 54 54 344
Width: 575
VWidth: 0
GlyphClass: 2
Flags: HW
PickledData: "(dp1
S'org.pippin.gimp.org.kernagic'
p2
(dp3
S'lstem'
p4
I0
sS'rstem'
p5
I0
ssS'com.typemytype.robofont.layerData'
p6
(dp7
sS'org.robofab.postScriptHintData'
p8
(dp9
s."
LayerCount: 2
Fore
SplineSet
290 83 m 256
 229 83 193 130 193 193 c 256
 193 269 240 306 291 306 c 256
 351 306 385 261 385 194 c 256
 385 130 351 83 290 83 c 256
290 -10 m 256
 433 -10 518 73 518 190 c 256
 518 320 424 384 333 384 c 256
 301 384 272 374 250 362 c 257
 315 444 377 531 440 614 c 257
 440 626 l 257
 295 626 l 257
 134 394 l 258
 89 331 61 277 61 197 c 256
 61 80 145 -10 290 -10 c 256
EndSplineSet
EndChar

StartChar: slash
Encoding: 47 47 345
Width: 431
VWidth: 0
GlyphClass: 2
Flags: HW
PickledData: "(dp1
S'org.pippin.gimp.org.kernagic'
p2
(dp3
S'lstem'
p4
I0
sS'rstem'
p5
I0
ssS'com.typemytype.robofont.layerData'
p6
(dp7
S'b'
(dp8
S'name'
p9
S'slash'
p10
sS'lib'
p11
(dp12
sS'unicodes'
p13
(tsS'width'
p14
I965
sS'contours'
p15
(tsS'components'
p16
(tsS'anchors'
p17
(tsssS'org.robofab.postScriptHintData'
p18
(dp19
s."
LayerCount: 2
Fore
SplineSet
34 -74 m 257
 118 -74 l 257
 393 669 l 257
 307 669 l 257
 34 -74 l 257
EndSplineSet
EndChar

StartChar: slashbar
Encoding: 65542 -1 346
Width: 203
VWidth: 0
GlyphClass: 4
Flags: HW
PickledData: "(dp1
S'org.pippin.gimp.org.kernagic'
p2
(dp3
S'lstem'
p4
I0
sS'rstem'
p5
I0
ssS'com.typemytype.robofont.layerData'
p6
(dp7
S'b'
(dp8
S'name'
p9
S'slashbar'
p10
sS'lib'
p11
(dp12
sS'unicodes'
p13
(tsS'width'
p14
I908
sS'contours'
p15
(tsS'components'
p16
(tsS'anchors'
p17
(tsssS'org.robofab.postScriptHintData'
p18
(dp19
s."
LayerCount: 2
Fore
SplineSet
66 197 m 257
 346 306 l 257
 346 397 l 257
 66 286 l 257
 66 197 l 257
EndSplineSet
EndChar

StartChar: sterling
Encoding: 163 163 348
Width: 512
VWidth: 0
GlyphClass: 2
Flags: HW
PickledData: "(dp1
S'org.pippin.gimp.org.kernagic'
p2
(dp3
S'lstem'
p4
I0
sS'rstem'
p5
I0
ssS'com.typemytype.robofont.layerData'
p6
(dp7
S'b'
(dp8
S'name'
p9
S'sterling'
p10
sS'lib'
p11
(dp12
sS'unicodes'
p13
(tsS'width'
p14
I1136
sS'contours'
p15
((dp16
S'points'
p17
((dp18
S'segmentType'
p19
S'line'
p20
sS'x'
I20
sS'smooth'
p21
I00
sS'y'
I0
s(dp22
g19
S'line'
p23
sS'x'
I8
sg21
I00
sS'y'
I115
s(dp24
g19
S'line'
p25
sS'x'
I180
sg21
I00
sS'y'
I132
s(dp26
g19
S'line'
p27
sS'x'
I180
sg21
I00
sS'y'
I683
s(dp28
g19
S'line'
p29
sS'x'
I8
sg21
I00
sS'y'
I683
s(dp30
g19
S'line'
p31
sS'x'
I8
sg21
I00
sS'y'
I806
s(dp32
g19
S'line'
p33
sS'x'
I180
sg21
I00
sS'y'
I806
s(dp34
g19
S'line'
p35
sS'x'
I180
sg21
I01
sS'y'
I920
s(dp36
S'y'
I1183
sS'x'
I180
sg21
I00
s(dp37
S'y'
I1476
sS'x'
I245
sg21
I00
s(dp38
g19
S'curve'
p39
sS'x'
I598
sg21
I01
sS'y'
I1476
s(dp40
S'y'
I1476
sS'x'
I742
sg21
I00
s(dp41
S'y'
I1421
sS'x'
I854
sg21
I00
s(dp42
g19
S'curve'
p43
sS'x'
I939
sg21
I00
sS'y'
I1347
s(dp44
g19
S'line'
p45
sS'x'
I871
sg21
I00
sS'y'
I1229
s(dp46
S'y'
I1297
sS'x'
I785
sg21
I00
s(dp47
S'y'
I1334
sS'x'
I700
sg21
I00
s(dp48
g19
S'curve'
p49
sS'x'
I598
sg21
I01
sS'y'
I1334
s(dp50
S'y'
I1334
sS'x'
I397
sg21
I00
s(dp51
S'y'
I1179
sS'x'
I356
sg21
I00
s(dp52
g19
S'curve'
p53
sS'x'
I356
sg21
I01
sS'y'
I949
s(dp54
g19
S'line'
p55
sS'x'
I356
sg21
I00
sS'y'
I806
s(dp56
g19
S'line'
p57
sS'x'
I739
sg21
I00
sS'y'
I806
s(dp58
g19
S'line'
p59
sS'x'
I739
sg21
I00
sS'y'
I683
s(dp60
g19
S'line'
p61
sS'x'
I356
sg21
I00
sS'y'
I683
s(dp62
g19
S'line'
p63
sS'x'
I356
sg21
I00
sS'y'
I134
s(dp64
g19
S'line'
p65
sS'x'
I953
sg21
I00
sS'y'
I134
s(dp66
g19
S'line'
p67
sS'x'
I940
sg21
I00
sS'y'
I0
stp68
stp69
sS'components'
p70
(tsS'anchors'
p71
(tsssS'org.robofab.postScriptHintData'
p72
(dp73
s."
LayerCount: 2
Fore
SplineSet
247 435 m 258
 247 512 278 551 335 551 c 256
 367 551 394 540 425 522 c 257
 434 522 l 257
 477 601 l 257
 459 618 400 657 309 657 c 256
 162 657 113 558 113 417 c 258
 113 366 l 257
 35 366 l 257
 35 287 l 257
 113 287 l 257
 113 93 l 257
 38 84 l 257
 42 0 l 257
 470 0 l 257
 472 94 l 257
 247 94 l 257
 247 287 l 257
 387 287 l 257
 387 366 l 257
 247 366 l 257
 247 435 l 258
EndSplineSet
EndChar

StartChar: t
Encoding: 116 116 350
Width: 371
VWidth: 0
GlyphClass: 2
Flags: HW
PickledData: "(dp1
S'org.pippin.gimp.org.kernagic'
p2
(dp3
S'lstem'
p4
I189
sS'rstem'
p5
I480
ssS'com.typemytype.robofont.layerData'
p6
(dp7
sS'com.fontlab.hintData'
p8
(dp9
S'vhints'
p10
((dp11
S'position'
p12
I244
sS'width'
p13
I122
s(dp14
g12
I286
sg13
I80
stp15
sS'hhints'
p16
((dp17
g12
I-11
sg13
I83
stp18
ssS'org.robofab.postScriptHintData'
p19
(dp20
s."
HStem: -4 36
VStem: 104 53 123 34
AnchorPoint: "top" 171 574 basechar 0
AnchorPoint: "bot" 216 0 basechar 0
LayerCount: 2
Fore
SplineSet
267 -4 m 257
 344 -2 l 257
 348 84 l 257
 286 87 l 258
 229 90 218 108 218 165 c 258
 218 388 l 257
 342 388 l 257
 342 464 l 257
 218 464 l 257
 218 604 l 257
 101 595 l 257
 91 464 l 257
 20 457 l 257
 18 388 l 257
 89 388 l 257
 89 169 l 258
 89 51 111 -4 267 -4 c 257
EndSplineSet
EndChar

StartChar: thorn
Encoding: 254 254 355
Width: 489
VWidth: 0
GlyphClass: 2
Flags: HW
PickledData: "(dp1
S'org.pippin.gimp.org.kernagic'
p2
(dp3
S'lstem'
p4
I0
sS'rstem'
p5
I0
ssS'com.typemytype.robofont.layerData'
p6
(dp7
S'b'
(dp8
S'name'
p9
S'thorn'
p10
sS'lib'
p11
(dp12
sS'unicodes'
p13
(tsS'width'
p14
I1221
sS'contours'
p15
(tsS'components'
p16
(tsS'anchors'
p17
(tsssS'org.robofab.postScriptHintData'
p18
(dp19
s."
LayerCount: 2
Fore
SplineSet
70 218 m 257
 70 -187 l 257
 199 -187 l 257
 199 218 l 257
 70 218 l 257
EndSplineSet
Refer: 155 98 N 1 0 0 1 11 0 2
EndChar

StartChar: three
Encoding: 51 51 356
Width: 527
VWidth: 0
GlyphClass: 2
Flags: HW
PickledData: "(dp1
S'org.pippin.gimp.org.kernagic'
p2
(dp3
S'lstem'
p4
I0
sS'rstem'
p5
I0
ssS'com.typemytype.robofont.layerData'
p6
(dp7
sS'org.robofab.postScriptHintData'
p8
(dp9
s."
LayerCount: 2
Fore
SplineSet
247 -10 m 256
 365 -10 473 48 473 174 c 256
 473 242 436 314 329 326 c 257
 430 343 456 410 456 471 c 260
 455 583 367 636 243 636 c 260
 153 636 80 596 44 540 c 261
 105 477 l 261
 114 475 l 261
 149 517 189 534 236 534 c 260
 295 534 324 504 325 451 c 256
 325 373 267 359 184 359 c 257
 143 358 l 257
 152 275 l 257
 185 275 l 258
 277 275 335 258 335 180 c 256
 335 124 301 90 238 90 c 256
 183 90 133 115 107 149 c 257
 97 149 l 257
 40 82 l 257
 61 46 137 -10 247 -10 c 256
EndSplineSet
EndChar

StartChar: threequarters
Encoding: 190 190 357
Width: 740
VWidth: 0
GlyphClass: 3
Flags: HW
PickledData: "(dp1
S'org.pippin.gimp.org.kernagic'
p2
(dp3
S'lstem'
p4
I0
sS'rstem'
p5
I0
ssS'com.typemytype.robofont.layerData'
p6
(dp7
sS'org.robofab.postScriptHintData'
p8
(dp9
s."
LayerCount: 2
Fore
SplineSet
540 136 m 257
 624 281 l 257
 624 136 l 257
 540 136 l 257
178 0 m 257
 263 0 l 257
 680 643 l 257
 597 643 l 257
 178 0 l 257
624 0 m 257
 694 0 l 257
 694 77 l 257
 738 77 l 257
 742 136 l 257
 694 136 l 257
 694 373 l 257
 620 373 l 257
 464 137 l 257
 464 77 l 257
 624 77 l 257
 624 0 l 257
159 248 m 256
 233 248 299 286 299 365 c 256
 299 406 276 444 232 454 c 257
 277 463 290 503 291 535 c 256
 291 604 235 632 172 632 c 256
 128 632 82 619 47 596 c 257
 71 547 l 257
 102 565 135 572 161 572 c 256
 196 572 220 558 220 526 c 256
 220 498 209 480 156 480 c 258
 108 480 l 257
 108 421 l 257
 155 422 l 257
 157 422 l 258
 208 422 229 401 229 366 c 256
 229 326 195 309 156 309 c 256
 125 309 92 318 68 336 c 257
 44 279 l 257
 78 259 119 248 159 248 c 256
EndSplineSet
Ligature2: "fracDiagonalFractionslookup11 subtable" three slash four
EndChar

StartChar: tilde
Encoding: 732 732 358
Width: 418
VWidth: 0
GlyphClass: 4
Flags: HW
PickledData: "(dp1
S'org.robofab.postScriptHintData'
p2
(dp3
sS'com.typemytype.robofont.layerData'
p4
(dp5
sS'com.fontlab.hintData'
p6
(dp7
S'vhints'
p8
((dp9
S'position'
p10
I169
sS'width'
p11
I63
s(dp12
g10
I657
sg11
I67
stp13
sS'hhints'
p14
((dp15
g10
I1301
sg11
I88
s(dp16
g10
I1400
sg11
I79
stp17
ss."
HStem: 558 38 601 34
VStem: 73 27 282 29
AnchorPoint: "top" 209 461 mark 0
LayerCount: 2
Fore
SplineSet
67 543 m 257
 121 543 l 257
 127 574 138 586 153 586 c 256
 182 586 227 543 274 543 c 256
 333 543 354 599 354 651 c 257
 299 651 l 257
 293 625 284 615 272 615 c 256
 247 615 208 651 151 651 c 256
 88 651 67 597 67 543 c 257
EndSplineSet
EndChar

StartChar: trademark
Encoding: 8482 8482 359
Width: 897
VWidth: 0
GlyphClass: 2
Flags: HW
PickledData: "(dp1
S'org.robofab.postScriptHintData'
p2
(dp3
sS'com.typemytype.robofont.layerData'
p4
(dp5
S'b'
(dp6
S'name'
p7
S'trademark'
p8
sS'lib'
p9
(dp10
sS'unicodes'
p11
(tsS'width'
p12
I2216
sS'contours'
p13
(tsS'components'
p14
(tsS'anchors'
p15
(tsss."
LayerCount: 2
Fore
SplineSet
153 223 m 257
 234 223 l 257
 234 561 l 257
 350 561 l 257
 350 624 l 257
 36 624 l 257
 36 561 l 257
 153 561 l 257
 153 223 l 257
397 223 m 257
 473 223 l 257
 479 490 l 257
 590 261 l 257
 634 261 l 257
 745 488 l 257
 751 223 l 257
 826 223 l 257
 818 624 l 257
 737 624 l 257
 612 366 l 257
 487 624 l 257
 405 624 l 257
 397 223 l 257
EndSplineSet
EndChar

StartChar: two
Encoding: 50 50 360
Width: 575
VWidth: 0
GlyphClass: 2
Flags: HW
PickledData: "(dp1
S'org.pippin.gimp.org.kernagic'
p2
(dp3
S'lstem'
p4
I0
sS'rstem'
p5
I0
ssS'com.typemytype.robofont.layerData'
p6
(dp7
sS'org.robofab.postScriptHintData'
p8
(dp9
s."
LayerCount: 2
Fore
SplineSet
127 464 m 261
 163 507 221 535 277 535 c 260
 330 535 372 503 372 445 c 260
 372 399 352 369 306 324 c 262
 74 92 l 257
 95 0 l 257
 487 0 l 257
 492 94 l 257
 229 94 l 257
 381 242 l 262
 466 323 497 376 497 443 c 260
 497 546 430 636 278 636 c 260
 179 636 100 585 54 531 c 261
 117 464 l 261
 127 464 l 261
EndSplineSet
EndChar

StartChar: u
Encoding: 117 117 361
Width: 533
VWidth: 0
GlyphClass: 2
Flags: HW
PickledData: "(dp1
S'org.pippin.gimp.org.kernagic'
p2
(dp3
S'lstem'
p4
I0
sS'rstem'
p5
I0
ssS'com.typemytype.robofont.layerData'
p6
(dp7
sS'com.fontlab.hintData'
p8
(dp9
S'vhints'
p10
((dp11
S'position'
p12
I162
sS'width'
p13
I166
s(dp14
g12
I862
sg13
I166
stp15
sS'hhints'
p16
((dp17
g12
I-21
sg13
I126
stp18
ssS'org.robofab.postScriptHintData'
p19
(dp20
s."
HStem: -9 54
VStem: 69 71 370 71
AnchorPoint: "top" 270 464 basechar 0
AnchorPoint: "bot" 264 0 basechar 0
LayerCount: 2
Fore
SplineSet
343 122 m 257
 328 103 302 77 256 77 c 256
 206 77 185 108 185 189 c 258
 185 464 l 257
 54 464 l 257
 54 175 l 258
 54 59 110 -10 216 -10 c 256
 288 -10 331 25 356 65 c 257
 362 0 l 257
 475 0 l 257
 475 464 l 257
 343 464 l 257
 343 122 l 257
EndSplineSet
EndChar

StartChar: underscore
Encoding: 95 95 369
Width: 417
VWidth: 0
GlyphClass: 2
Flags: HW
PickledData: "(dp1
S'org.pippin.gimp.org.kernagic'
p2
(dp3
S'lstem'
p4
I0
sS'rstem'
p5
I0
ssS'com.typemytype.robofont.layerData'
p6
(dp7
sS'org.robofab.postScriptHintData'
p8
(dp9
s."
LayerCount: 2
Fore
SplineSet
0 -120 m 257
 417 -120 l 257
 417 -44 l 257
 0 -44 l 257
 0 -120 l 257
EndSplineSet
EndChar

StartChar: uni00AD
Encoding: 173 173 372
Width: 431
VWidth: 0
GlyphClass: 2
Flags: HW
PickledData: "(dp1
S'org.robofab.postScriptHintData'
p2
(dp3
s."
LayerCount: 2
Fore
SplineSet
74 90 m 257
 354 90 l 257
 354 179 l 257
 74 179 l 257
 74 90 l 257
EndSplineSet
EndChar

StartChar: uni00B2
Encoding: 178 178 373
Width: 354
VWidth: 0
GlyphClass: 2
Flags: HW
PickledData: "(dp1
S'org.robofab.postScriptHintData'
p2
(dp3
sS'com.typemytype.robofont.layerData'
p4
(dp5
s."
LayerCount: 2
Fore
SplineSet
67 262 m 257
 300 262 l 257
 307 323 l 257
 176 323 l 257
 230 371 214 351 254 391 c 256
 286 424 307 468 307 516 c 256
 307 592 249 637 190 637 c 256
 135 637 92 618 64 580 c 257
 97 529 l 257
 116 555 148 570 182 570 c 256
 208 570 234 549 234 515 c 256
 234 497 210 463 197 445 c 257
 120 359 108 364 67 322 c 257
 67 262 l 257
EndSplineSet
EndChar

StartChar: uni00B3
Encoding: 179 179 374
Width: 377
VWidth: 0
GlyphClass: 2
Flags: HW
PickledData: "(dp1
S'org.robofab.postScriptHintData'
p2
(dp3
sS'com.typemytype.robofont.layerData'
p4
(dp5
s."
LayerCount: 2
Fore
SplineSet
185 255 m 256
 261 255 327 292 327 368 c 256
 327 411 302 448 260 457 c 257
 304 466 319 501 320 538 c 256
 320 608 264 636 201 636 c 256
 154 636 104 622 69 598 c 257
 93 550 l 257
 121 568 155 578 187 578 c 256
 224 578 253 563 253 530 c 256
 253 502 242 484 185 484 c 258
 133 484 l 257
 133 428 l 257
 184 428 l 257
 187 428 l 258
 238 428 260 405 260 371 c 256
 260 331 224 312 183 312 c 256
 148 312 113 325 91 343 c 257
 66 287 l 257
 100 265 143 255 185 255 c 256
EndSplineSet
EndChar

StartChar: uni00B9
Encoding: 185 185 376
Width: 370
VWidth: 0
GlyphClass: 2
Flags: HW
PickledData: "(dp1
S'org.robofab.postScriptHintData'
p2
(dp3
sS'com.typemytype.robofont.layerData'
p4
(dp5
s."
LayerCount: 2
Fore
SplineSet
104 248 m 257
 310 248 l 257
 310 313 l 257
 248 313 l 257
 248 629 l 257
 185 629 l 257
 173 621 119 591 98 580 c 257
 98 514 l 257
 102 514 150 538 166 546 c 257
 166 313 l 257
 104 313 l 257
 104 248 l 257
EndSplineSet
EndChar

StartChar: uni02C9
Encoding: 713 713 445
Width: 256
VWidth: 0
GlyphClass: 4
Flags: HW
PickledData: "(dp1
S'org.robofab.postScriptHintData'
p2
(dp3
s."
AnchorPoint: "top" 126 461 mark 0
LayerCount: 2
Fore
SplineSet
-21 574 m 257
 273 574 l 257
 273 645 l 257
 -21 645 l 257
 -21 574 l 257
EndSplineSet
EndChar

StartChar: uni0307
Encoding: 775 775 446
Width: 246
VWidth: 0
GlyphClass: 4
Flags: HW
PickledData: "(dp1
S'org.robofab.postScriptHintData'
p2
(dp3
sS'com.typemytype.robofont.layerData'
p4
(dp5
s."
LayerCount: 2
Fore
SplineSet
198 623 m 256
 198 664 172 691 126 691 c 256
 80 691 51 664 51 623 c 256
 51 580 80 554 126 554 c 256
 172 554 198 580 198 623 c 256
EndSplineSet
EndChar

StartChar: uni2074
Encoding: 8308 8308 465
Width: 295
VWidth: 0
GlyphClass: 2
Flags: HW
PickledData: "(dp1
S'org.robofab.postScriptHintData'
p2
(dp3
sS'com.typemytype.robofont.layerData'
p4
(dp5
s."
LayerCount: 2
Fore
SplineSet
76 392 m 257
 157 538 l 257
 157 392 l 257
 76 392 l 257
156 255 m 257
 225 255 l 257
 225 335 l 257
 268 335 l 257
 274 392 l 257
 225 392 l 257
 225 630 l 257
 153 630 l 257
 2 395 l 257
 2 335 l 257
 156 335 l 257
 156 255 l 257
EndSplineSet
EndChar

StartChar: uni2113
Encoding: 8467 8467 466
Width: 564
VWidth: 0
GlyphClass: 2
Flags: HW
PickledData: "(dp1
S'org.robofab.postScriptHintData'
p2
(dp3
s."
LayerCount: 2
Fore
SplineSet
126 126 m 256
 126 34 177 -9 252 -9 c 256
 364 -9 437 42 437 42 c 257
 425 119 l 257
 381 100 340 86 307 86 c 256
 275 86 258 101 258 136 c 256
 258 147 260 162 264 179 c 258
 290 279 l 257
 413 371 l 258
 521 451 565 491 565 581 c 256
 565 678 486 730 407 730 c 256
 339 730 269 693 244 599 c 258
 159 284 l 257
 30 189 l 257
 54 143 l 257
 134 200 l 257
 128 173 126 148 126 126 c 256
312 374 m 257
 345 515 l 257
 354 549 376 631 424 631 c 256
 457 631 475 614 475 585 c 256
 475 546 444 488 381 434 c 258
 312 374 l 257
EndSplineSet
EndChar

StartChar: Delta
Encoding: 8710 8710 468
Width: 564
VWidth: 0
GlyphClass: 2
Flags: HW
PickledData: "(dp1
S'org.pippin.gimp.org.kernagic'
p2
(dp3
S'lstem'
p4
I0
sS'rstem'
p5
I0
ssS'com.typemytype.robofont.layerData'
p6
(dp7
S'b'
(dp8
S'name'
p9
S'uni2206'
p10
sS'lib'
p11
(dp12
sS'unicodes'
p13
(tsS'width'
p14
I1278
sS'contours'
p15
(tsS'components'
p16
(tsS'anchors'
p17
(tsssS'org.robofab.postScriptHintData'
p18
(dp19
s."
LayerCount: 2
Fore
SplineSet
297 523 m 257
 450 76 l 257
 117 76 l 257
 268 523 l 257
 282 575 l 257
 297 523 l 257
242 675 m 257
 30 38 l 257
 30 0 l 257
 536 0 l 257
 536 38 l 257
 325 675 l 257
 242 675 l 257
EndSplineSet
EndChar

StartChar: v
Encoding: 118 118 479
Width: 468
VWidth: 0
GlyphClass: 2
Flags: HW
PickledData: "(dp1
S'org.pippin.gimp.org.kernagic'
p2
(dp3
S'lstem'
p4
I0
sS'rstem'
p5
I0
ssS'com.typemytype.robofont.guides'
p6
((dp7
S'y'
I552
sS'x'
I438
sS'magnetic'
p8
I5
sS'angle'
p9
I0
sS'isGlobal'
p10
I00
stp11
sS'com.typemytype.robofont.layerData'
p12
(dp13
sS'org.robofab.postScriptHintData'
p14
(dp15
s."
LayerCount: 2
Fore
SplineSet
171 0 m 257
 302 0 l 257
 460 464 l 257
 329 464 l 257
 241 140 l 257
 144 464 l 257
 10 464 l 257
 171 0 l 257
EndSplineSet
EndChar

StartChar: w
Encoding: 119 119 480
Width: 654
VWidth: 0
GlyphClass: 2
Flags: HW
PickledData: "(dp1
S'org.pippin.gimp.org.kernagic'
p2
(dp3
S'lstem'
p4
I0
sS'rstem'
p5
I0
ssS'com.typemytype.robofont.layerData'
p6
(dp7
sS'org.robofab.postScriptHintData'
p8
(dp9
s."
AnchorPoint: "top" 333 464 basechar 0
LayerCount: 2
Fore
SplineSet
333 339 m 257
 413 0 l 257
 534 0 l 257
 650 464 l 257
 537 464 l 257
 473 133 l 257
 392 464 l 257
 273 464 l 257
 185 129 l 257
 126 464 l 257
 4 464 l 257
 119 0 l 257
 236 0 l 257
 333 339 l 257
EndSplineSet
EndChar

StartChar: x
Encoding: 120 120 485
Width: 465
VWidth: 0
GlyphClass: 2
Flags: HW
PickledData: "(dp1
S'org.pippin.gimp.org.kernagic'
p2
(dp3
S'lstem'
p4
I0
sS'rstem'
p5
I0
ssS'com.typemytype.robofont.layerData'
p6
(dp7
sS'com.fontlab.hintData'
p8
(dp9
S'hhints'
p10
((dp11
S'position'
p12
I0
sS'width'
p13
I22
s(dp14
g12
I1034
sg13
I21
stp15
ssS'org.robofab.postScriptHintData'
p16
(dp17
s."
HStem: 0 10 443 9
LayerCount: 2
Fore
SplineSet
305 236 m 257
 454 464 l 261
 330 464 l 261
 241 331 l 257
 153 464 l 261
 14 464 l 261
 165 236 l 257
 5 0 l 257
 130 0 l 257
 228 141 l 257
 320 0 l 257
 461 0 l 257
 305 236 l 257
EndSplineSet
EndChar

StartChar: y
Encoding: 121 121 486
Width: 485
VWidth: 0
GlyphClass: 2
Flags: HW
PickledData: "(dp1
S'org.pippin.gimp.org.kernagic'
p2
(dp3
S'lstem'
p4
I0
sS'rstem'
p5
I0
ssS'com.typemytype.robofont.layerData'
p6
(dp7
sS'org.robofab.postScriptHintData'
p8
(dp9
s."
AnchorPoint: "top" 241 464 basechar 0
LayerCount: 2
Fore
SplineSet
485 464 m 257
 363 464 l 257
 248 176 l 257
 126 464 l 257
 -4 464 l 257
 183 52 l 257
 97 -150 l 257
 202 -189 l 257
 485 464 l 257
EndSplineSet
EndChar

StartChar: yen
Encoding: 165 165 490
Width: 579
VWidth: 0
GlyphClass: 2
Flags: HW
PickledData: "(dp1
S'org.pippin.gimp.org.kernagic'
p2
(dp3
S'lstem'
p4
I0
sS'rstem'
p5
I0
ssS'com.typemytype.robofont.layerData'
p6
(dp7
S'b'
(dp8
S'name'
p9
S'yen'
p10
sS'lib'
p11
(dp12
sS'unicodes'
p13
(tsS'width'
p14
I1366
sS'contours'
p15
(tsS'components'
p16
(tsS'anchors'
p17
(tsssS'org.robofab.postScriptHintData'
p18
(dp19
s."
LayerCount: 2
Fore
SplineSet
89 226 m 257
 479 226 l 257
 479 283 l 257
 89 283 l 257
 89 226 l 257
89 104 m 257
 479 104 l 257
 479 162 l 257
 89 162 l 257
 89 104 l 257
EndSplineSet
Refer: 124 89 N 1 0 0 1 0 0 2
EndChar

StartChar: z
Encoding: 122 122 492
Width: 417
VWidth: 0
GlyphClass: 2
Flags: HW
PickledData: "(dp1
S'org.pippin.gimp.org.kernagic'
p2
(dp3
S'lstem'
p4
I0
sS'rstem'
p5
I0
ssS'com.typemytype.robofont.layerData'
p6
(dp7
sS'org.robofab.postScriptHintData'
p8
(dp9
s."
AnchorPoint: "top" 208 464 basechar 0
AnchorPoint: "bot" 214 0 basechar 0
LayerCount: 2
Fore
SplineSet
37 464 m 257
 36 384 l 257
 243 384 l 257
 32 67 l 257
 32 0 l 257
 392 0 l 257
 392 83 l 257
 181 83 l 257
 385 390 l 257
 385 464 l 257
 37 464 l 257
EndSplineSet
EndChar

StartChar: zero
Encoding: 48 48 496
Width: 575
VWidth: 0
GlyphClass: 2
Flags: HW
PickledData: "(dp1
S'org.pippin.gimp.org.kernagic'
p2
(dp3
S'lstem'
p4
I0
sS'rstem'
p5
I0
ssS'com.typemytype.robofont.layerData'
p6
(dp7
S'b'
(dp8
S'name'
p9
S'zero'
p10
sS'lib'
p11
(dp12
sS'unicodes'
p13
(tsS'width'
p14
I1248
sS'contours'
p15
(tsS'components'
p16
(tsS'anchors'
p17
(tsssS'org.robofab.postScriptHintData'
p18
(dp19
s."
LayerCount: 2
Fore
SplineSet
289 -10 m 256
 447 -10 535 114 535 310 c 256
 535 508 444 636 289 636 c 260
 134 636 41 508 41 310 c 256
 41 114 131 -10 289 -10 c 256
289 91 m 256
 225 91 184 167 184 310 c 256
 185 449 226 534 289 534 c 260
 353 534 391 454 391 311 c 256
 391 168 353 91 289 91 c 256
EndSplineSet
EndChar

StartChar: Sigma
Encoding: 931 931 498
Width: 496
VWidth: 0
GlyphClass: 2
Flags: HW
LayerCount: 2
Fore
SplineSet
32 624 m 257
 32 543 l 257
 242 253 l 257
 28 -28 l 257
 28 -108 l 257
 475 -108 l 257
 475 -5 l 257
 170 -5 l 257
 379 257 l 257
 193 525 l 257
 459 525 l 257
 459 624 l 257
 32 624 l 257
EndSplineSet
EndChar

StartChar: uni03BC
Encoding: 956 956 499
Width: 526
VWidth: 0
GlyphClass: 2
Flags: HW
LayerCount: 2
Fore
SplineSet
343 122 m 257
 328 103 302 77 256 77 c 256
 206 77 185 108 185 189 c 258
 185 464 l 257
 54 464 l 257
 54 -135 l 257
 185 -135 l 257
 185 -7 l 257
 195 -8 205 -9 216 -9 c 256
 288 -9 331 25 356 65 c 257
 362 0 l 257
 475 0 l 257
 475 464 l 257
 343 464 l 257
 343 122 l 257
EndSplineSet
EndChar

StartChar: emptyset
Encoding: 8709 8709 500
Width: 719
VWidth: 0
GlyphClass: 2
Flags: HW
LayerCount: 2
Fore
SplineSet
35 314 m 256
 35 500 189 644 356 644 c 256
 430 644 502 616 558 569 c 257
 633 654 l 257
 670 626 l 257
 591 538 l 257
 645 480 678 402 678 314 c 256
 678 128 523 -16 356 -16 c 256
 284 -16 215 11 160 56 c 257
 77 -37 l 257
 44 -7 l 257
 126 86 l 257
 70 145 35 224 35 314 c 256
189 89 m 257
 237 50 295 29 356 29 c 256
 499 29 634 153 634 314 c 256
 634 389 606 455 561 505 c 257
 189 89 l 257
156 119 m 257
 529 536 l 257
 480 576 418 600 356 600 c 256
 213 600 79 475 79 314 c 256
 79 238 109 169 156 119 c 257
EndSplineSet
EndChar

StartChar: uni03A9
Encoding: 937 937 501
Width: 878
VWidth: 0
GlyphClass: 2
Flags: HW
LayerCount: 2
Fore
SplineSet
43 -11 m 257
 34 61 l 257
 169 61 l 257
 93 123 42 217 42 331 c 256
 42 513 173 631 349 631 c 256
 532 631 648 499 648 330 c 256
 648 212 584 121 516 61 c 257
 651 61 l 257
 644 -11 l 257
 407 -11 l 257
 406 53 l 257
 410 56 l 258
 496 114 559 207 559 322 c 256
 559 448 488 555 348 555 c 256
 220 555 130 464 130 324 c 256
 130 210 189 113 277 56 c 258
 283 53 l 257
 283 -11 l 257
 43 -11 l 257
EndSplineSet
EndChar

StartChar: uni0358
Encoding: 856 856 502
Width: 246
VWidth: 0
GlyphClass: 4
Flags: HW
LayerCount: 2
Fore
SplineSet
198 623 m 256
 198 664 172 691 126 691 c 256
 80 691 51 664 51 623 c 256
 51 580 80 554 126 554 c 256
 172 554 198 580 198 623 c 256
EndSplineSet
EndChar

StartChar: uni0259
Encoding: 601 601 503
Width: 505
VWidth: 0
GlyphClass: 2
Flags: HW
PickledData: "(dp1
S'com.fontlab.hintData'
p2
(dp3
S'hhints'
p4
((dp5
S'position'
p6
I-19
sS'width'
p7
I94
s(dp8
g6
I982
sg7
I92
stp9
ss."
HStem: -8 40 421 40
LayerCount: 2
Fore
SplineSet
340 197 m 257
 335 115 295 76 239 76 c 256
 184 76 156 115 156 197 c 257
 340 197 l 257
231 473 m 256
 157 473 91 451 54 419 c 257
 83 349 l 257
 90 349 l 257
 127 372 167 387 216 387 c 256
 284 387 334 348 341 269 c 257
 51 269 l 257
 51 269 47 244 47 214 c 256
 49 82 106 -9 245 -9 c 256
 379 -9 472 84 472 233 c 256
 472 381 376 473 231 473 c 256
EndSplineSet
EndChar
